<svg id="_ëîé_1" data-name="‘ëîé_1" xmlns="http://www.w3.org/2000/svg" viewBox="0 0 2000 2000"><defs><style>.cls-1{fill:#fff;}</style></defs><title>Logo_B</title><path class="cls-1" d="M1727.86,890.18H958.46C919.2,715.8,763.35,585,577.29,585c-215.59,0-391,175.39-391,391s175.39,391,391,391c186.06,0,341.91-130.76,381.17-305.14h483.33v162.1a85.83,85.83,0,0,0,171.65,0v-162.1h114.42a85.83,85.83,0,1,0,0-171.65ZM577.29,1195.33C456.35,1195.33,358,1096.94,358,976s98.39-219.32,219.33-219.32S796.61,855.06,796.61,976,698.23,1195.33,577.29,1195.33Zm999.85,41.82h-22.38v-95h-.44l-22.16,67.14H1521l-22-67.14h-.44v95H1476.2V1080.92h21.51l28.74,82.72h.44l28.53-82.72h21.72Z"/><polygon class="cls-1" points="1151.08 767.74 1151.08 753.55 1087.85 753.55 1087.85 852.57 1151.08 852.57 1151.08 838.38 1102.86 838.38 1102.86 809.31 1144.02 809.31 1144.02 796 1102.86 796 1102.86 767.74 1151.08 767.74"/><path class="cls-1" d="M1194.55,838.38q-16.3-.14-28.12-9.85l-9.85,11.27q15.83,13.59,37.83,13.59,34-.42,34.77-28.8a28.06,28.06,0,0,0-6.59-18.48q-6.64-8.07-20.57-10-7.07-.89-11.14-1.56-7.34-1.37-10.66-4.89a10.92,10.92,0,0,1-3.33-7.74q.13-7.14,5-10.73a18.66,18.66,0,0,1,11.54-3.47,45.4,45.4,0,0,1,24.52,7.61l8.35-12.36q-13.65-9.86-32.12-10.26-15.35.13-23.71,8-8.62,7.93-8.62,20.92a26.22,26.22,0,0,0,6.86,18.33q6.66,7.34,19.42,9.44,7.14,1,13.11,1.84,13,2.24,12.91,13.31Q1213.83,838.11,1194.55,838.38Z"/><path class="cls-1" d="M1261.65,774.94a18.89,18.89,0,0,1,6.25-5.09,20.63,20.63,0,0,1,9.1-2.11,19.6,19.6,0,0,1,12.22,4.14,21.78,21.78,0,0,1,6.66,10.19h15.89a37.38,37.38,0,0,0-11.41-20.85q-9-8.36-23.36-8.49-11.68.13-19.49,5.57T1246,770.53a27.09,27.09,0,0,0-3.33,9.44q-1,5.84-1,23.09,0,17,1,23a27.89,27.89,0,0,0,1.36,5.3c.59,1.36,1.24,2.79,2,4.28q3.6,6.87,11.55,12.09,7.8,5.43,19.49,5.71a35.34,35.34,0,0,0,22.34-7.34q9.17-7.39,12.43-21.19h-15.89q-6.26,13.51-18.88,13.52a20.36,20.36,0,0,1-15.35-7.2,16.47,16.47,0,0,1-3.87-8.36q-1.1-5.16-1.09-19.76t1.09-19.9A16.34,16.34,0,0,1,1261.65,774.94Z"/><path class="cls-1" d="M1380.78,852.57h15.82l-36-99H1348l-36,99h15.9l7.6-22.14h37.56Zm-40.89-35.45,14.33-43.27h.27l14.33,43.27Z"/><path class="cls-1" d="M1407.2,852.57h15V813.93H1445q15.27-.27,23.22-9.78a30.06,30.06,0,0,0,7.75-20,30.67,30.67,0,0,0-3.06-14.13,23.7,23.7,0,0,0-7.61-9.5,30.23,30.23,0,0,0-11-5.85,57.68,57.68,0,0,0-11.27-1.08H1407.2Zm15-84.83h21.67a18.81,18.81,0,0,1,10.73,2.79,12.39,12.39,0,0,1,4.76,4.82,19.3,19.3,0,0,1,1.63,8.35,16.74,16.74,0,0,1-4,10.87q-4.21,5-12.56,5.16H1422.2Z"/><polygon class="cls-1" points="1552.88 838.38 1504.66 838.38 1504.66 809.31 1545.82 809.31 1545.82 796 1504.66 796 1504.66 767.74 1552.88 767.74 1552.88 753.55 1489.65 753.55 1489.65 852.57 1552.88 852.57 1552.88 838.38"/><path class="cls-1" d="M1135.32,1150.26q4.28-9.66,4.28-23.48,0-45.87-39.5-45.86h-36v156.23h22.38v-66.71h13.39l20.85,66.71h23.69l-24.13-71.31Q1131,1159.92,1135.32,1150.26Zm-18.76-13.5a21.48,21.48,0,0,1-2.42,7.57,12.84,12.84,0,0,1-5.48,4.72,22.52,22.52,0,0,1-9.44,1.65h-12.73V1102h11.63q11.64,0,15.8,6.15a20.79,20.79,0,0,1,2.64,7.79,83.85,83.85,0,0,1,0,20.84Z"/><path class="cls-1" d="M1263.35,1089a39.41,39.41,0,0,0-39.16-7,37.27,37.27,0,0,0-12,7,35.15,35.15,0,0,0-8.78,12.07,39.93,39.93,0,0,0-3.29,16.67v82.51a39.6,39.6,0,0,0,3.29,16.89,33.45,33.45,0,0,0,8.78,11.64,35.27,35.27,0,0,0,12,7.24,39,39,0,0,0,27,0,37.69,37.69,0,0,0,12.17-7.24,34.85,34.85,0,0,0,8.56-11.64,39.45,39.45,0,0,0,3.29-16.89v-82.51a39.77,39.77,0,0,0-3.29-16.67A36.7,36.7,0,0,0,1263.35,1089Zm-10.53,111.25q0,8.12-4.5,12a16.66,16.66,0,0,1-21.28,0q-4.5-3.84-4.5-12v-82.51q0-8.12,4.5-12a16.66,16.66,0,0,1,21.28,0q4.5,3.84,4.5,12Z"/><path class="cls-1" d="M1349.59,1228.82a35.27,35.27,0,0,0,12,7.24,39,39,0,0,0,27,0,37.84,37.84,0,0,0,12.18-7.24,34.83,34.83,0,0,0,8.55-11.64,39.44,39.44,0,0,0,3.3-16.89v-82.51a39.77,39.77,0,0,0-3.3-16.67,36.67,36.67,0,0,0-8.55-12.07,40.25,40.25,0,0,0-25.68-9.44,39.73,39.73,0,0,0-13.49,2.41,37.27,37.27,0,0,0-12,7,35.28,35.28,0,0,0-8.78,12.07,39.93,39.93,0,0,0-3.29,16.67v82.51a39.6,39.6,0,0,0,3.29,16.89A33.57,33.57,0,0,0,1349.59,1228.82Zm10.31-111q0-8.12,4.5-12a16.67,16.67,0,0,1,21.29,0q4.49,3.84,4.49,12v82.51q0,8.12-4.49,12a16.67,16.67,0,0,1-21.29,0q-4.5-3.84-4.5-12Z"/></svg>