<?xml version="1.0" encoding="utf-8"?>
<!-- Generator: Adobe Illustrator 24.0.2, SVG Export Plug-In . SVG Version: 6.00 Build 0)  -->
<svg version="1.1" id="hari" xmlns="http://www.w3.org/2000/svg" xmlns:xlink="http://www.w3.org/1999/xlink" x="0px" y="0px"
	 viewBox="0 0 200 200" style="enable-background:new 0 0 200 200;" xml:space="preserve">
<style type="text/css">
	.st0{fill:#FFFFFF;}
	.st1{filter:url(#Adobe_OpacityMaskFilter);}
	.st2{mask:url(#SVGID_1_);}
	.st3{filter:url(#Adobe_OpacityMaskFilter_1_);}
	.st4{mask:url(#XMLID_2_);}
</style>
<defs>
	<filter id="Adobe_OpacityMaskFilter" filterUnits="userSpaceOnUse" x="27.8" y="25.8" width="144.4" height="148.4">
		<feColorMatrix  type="matrix" values="1 0 0 0 0  0 1 0 0 0  0 0 1 0 0  0 0 0 1 0"/>
	</filter>
</defs>
<mask maskUnits="userSpaceOnUse" x="27.8" y="25.8" width="144.4" height="148.4" id="XMLID_2_">
	<g class="st1">
		<rect x="0" class="st0" width="200" height="200"/>
		<rect x="-1.8" y="107.4" transform="matrix(0.7071 0.7071 -0.7071 0.7071 111.7356 -44.2017)" width="222" height="10.7"/>
	</g>
</mask>
<g id="XMLID_6489_" class="st4">
	<g id="XMLID_7812_">
		<path id="XMLID_7814_" class="st0" d="M55.5,172.9l2.5,1c2.7,1.1,5.8-0.2,7.1-2.9l0.2-0.4c0.5-1,0.6-2.1,0.5-3.1
			c-0.1-1.2,0.1-2.5,0.7-3.7c0.5-0.9,1.2-1.7,2-2.2c1-0.7,1.9-1.7,2.4-2.8l0.2-0.5c0.5-1,0.7-2.1,0.6-3.1c0-1,0.2-2.1,0.7-3.1
			c0.4-0.8,1-1.5,1.7-2c0.8-0.7,1.5-1.5,2-2.5l0.1-0.2c0.5-1.1,0.7-2.2,0.6-3.4c-0.1-1.1,0.1-2.3,0.7-3.3c0.5-1,1.2-1.8,2.1-2.3
			c0,0,0,0,0,0c0.7-0.5,1.2-1.1,1.5-1.9l0.3-0.6l2.6-5.1c1.1-2.1,3-3.7,5.3-4.2c0.1,0,0.1,0,0.2,0c0.2,0,0.4-0.1,0.6-0.1l-1.9-1
			l-10.4-5.4l-2,3.8l-3,5.7l-0.9,1.6l-4.1,7.9l-14.7,28.1C52.1,169.2,53.1,172,55.5,172.9z M68.7,144.2c0.4-0.8,1.4-1.1,2.3-0.7
			c0.8,0.4,1.1,1.4,0.7,2.3c-0.4,0.8-1.4,1.1-2.3,0.7C68.6,146.1,68.3,145.1,68.7,144.2z M63.1,155c0.4-0.8,1.4-1.1,2.3-0.7
			c0.8,0.4,1.1,1.4,0.7,2.3c-0.4,0.8-1.4,1.1-2.3,0.7C63,156.8,62.7,155.8,63.1,155z M57.5,165.7c0.4-0.8,1.4-1.1,2.3-0.7
			c0.8,0.4,1.1,1.4,0.7,2.3c-0.4,0.8-1.4,1.1-2.3,0.7C57.4,167.5,57,166.5,57.5,165.7z"/>
	</g>
	<g id="XMLID_9496_">
		<path id="XMLID_7942_" class="st0" d="M169.9,129.5l-28.3-14.2l-8-4l-1.6-0.8l-5.7-2.9l-3.8-1.9l-5.3,10.4l-1,1.9
			c0.2-0.1,0.4-0.2,0.6-0.3c0.1,0,0.1,0,0.2-0.1c2.2-0.9,4.7-0.7,6.8,0.3l5.1,2.6l0.6,0.3c0.7,0.5,1.5,0.7,2.3,0.7c0,0,0,0,0,0
			c1,0,2.1,0.2,3.1,0.7c1.1,0.5,1.9,1.4,2.5,2.3c0.6,1,1.5,1.8,2.5,2.4l0.2,0.1c0.9,0.5,2,0.8,3,0.9c0.9,0,1.7,0.2,2.6,0.7
			c1,0.5,1.8,1.2,2.4,2.1c0.6,0.9,1.4,1.6,2.3,2.2l0.5,0.3c1.1,0.6,2.3,0.9,3.6,0.9c1,0,2,0.2,2.9,0.7c1.2,0.6,2.1,1.5,2.7,2.6
			c0.5,0.9,1.3,1.7,2.2,2.3l0.4,0.2c2.6,1.4,5.8,0.7,7.4-1.8l1.5-2.3C172.9,133.5,172.1,130.6,169.9,129.5z M144.9,122.3
			c-0.4,0.8-1.4,1.2-2.2,0.7c-0.8-0.4-1.2-1.4-0.7-2.2c0.4-0.8,1.4-1.2,2.2-0.7C144.9,120.4,145.3,121.4,144.9,122.3z M155.7,127.7
			c-0.4,0.8-1.4,1.2-2.2,0.7c-0.8-0.4-1.2-1.4-0.7-2.2c0.4-0.8,1.4-1.2,2.2-0.7C155.7,125.9,156.1,126.9,155.7,127.7z M166.5,133.1
			c-0.4,0.8-1.4,1.2-2.2,0.7c-0.8-0.4-1.2-1.4-0.7-2.2c0.4-0.8,1.4-1.2,2.2-0.7C166.5,131.3,166.9,132.3,166.5,133.1z M68,77.9
			c-14.1-7.1-26.8-13.6-33.2-16.8c-2.9-1.5-4.6-2.3-4.6-2.3l-2.4-1.2l0.8,2.6c0.1,0.2,0.1,0.5,0.2,0.7c0,0.1,0,0.1,0.1,0.2l0,0.1
			c0.1,0.2,0.1,0.3,0.2,0.5c0,0.1,0,0.1,0.1,0.2l0.1,0.2c0,0.1,0.1,0.3,0.1,0.4c0,0.1,0.1,0.2,0.1,0.2l0,0.1
			c0.1,0.1,0.1,0.3,0.2,0.4c0,0.1,0.1,0.2,0.1,0.2l0,0.1c0.1,0.1,0.1,0.3,0.2,0.4c0,0.1,0.1,0.2,0.1,0.3l0,0.1
			c0.1,0.1,0.1,0.3,0.2,0.4c0,0.1,0.1,0.2,0.1,0.3l0,0c0.1,0.1,0.1,0.3,0.2,0.4c0.1,0.1,0.1,0.2,0.2,0.3c0.1,0.1,0.1,0.3,0.2,0.4
			c0.1,0.1,0.1,0.2,0.2,0.3c0.1,0.1,0.2,0.3,0.2,0.4c0.1,0.1,0.1,0.2,0.2,0.3c0.1,0.1,0.2,0.3,0.2,0.4c0.1,0.1,0.1,0.2,0.2,0.3
			c0.1,0.1,0.2,0.3,0.3,0.4c0.1,0.1,0.1,0.2,0.2,0.3c0.1,0.1,0.2,0.3,0.3,0.4l0,0.1c0.1,0.1,0.1,0.2,0.2,0.3
			c0.1,0.1,0.2,0.3,0.3,0.4l0,0.1c0.1,0.1,0.1,0.2,0.2,0.2c0.1,0.1,0.2,0.3,0.3,0.4l0.1,0.1c0,0.1,0.1,0.1,0.1,0.2
			c0.1,0.2,0.2,0.3,0.3,0.5l0.1,0.1c0,0.1,0.1,0.1,0.1,0.2c0.1,0.2,0.3,0.3,0.4,0.5l0.1,0.1c0,0,0.1,0.1,0.1,0.1
			c0.1,0.2,0.3,0.4,0.5,0.6l0.1,0.2c0.4,0.5,0.8,1,1.2,1.5l0,0c0.2,0.2,0.4,0.4,0.6,0.7l0.2,0.2c0.2,0.2,0.3,0.4,0.5,0.5
			c0,0,0.1,0.1,0.1,0.1l0.1,0.1c0.2,0.2,0.3,0.3,0.5,0.5l0.2,0.2c0.2,0.2,0.3,0.3,0.5,0.5c0.1,0.1,0.1,0.1,0.2,0.2l0,0
			c0.2,0.2,0.3,0.3,0.5,0.5l0.3,0.3c0.2,0.2,0.3,0.3,0.5,0.5c0.1,0.1,0.2,0.1,0.2,0.2l0,0c0.2,0.2,0.3,0.3,0.5,0.5
			c0.1,0.1,0.2,0.2,0.3,0.3c0.2,0.2,0.3,0.3,0.5,0.5l0.3,0.3c0.2,0.2,0.3,0.3,0.5,0.5l0.3,0.2c0.2,0.2,0.3,0.3,0.5,0.5
			c0.1,0.1,0.2,0.2,0.3,0.2c0.2,0.2,0.3,0.3,0.5,0.5l0.3,0.2c0.2,0.2,0.4,0.3,0.5,0.5l0.3,0.2c0.2,0.2,0.4,0.3,0.6,0.5l0.2,0.2
			c0.3,0.2,0.5,0.5,0.8,0.7l0.1,0.1c0.3,0.3,0.6,0.5,0.9,0.8l0,0c0.3,0.2,0.6,0.5,0.9,0.7l0.2,0.2c0.2,0.2,0.4,0.4,0.7,0.5l0.3,0.2
			c0.2,0.2,0.4,0.3,0.6,0.5l0.3,0.2c0.2,0.2,0.4,0.3,0.7,0.5l0.3,0.2c0.3,0.2,0.5,0.4,0.8,0.6l0.2,0.1c0.6,0.5,1.3,1,1.9,1.4
			l0.2,0.1c0.3,0.2,0.5,0.4,0.8,0.6l0.1,0.1c0.1,0.1,0.3,0.2,0.4,0.3l0.3,0.2c0.2,0.1,0.4,0.3,0.6,0.4l0.3,0.2
			c0.2,0.2,0.5,0.3,0.7,0.5l0.2,0.2c0.2,0.1,0.4,0.3,0.6,0.4l0.3,0.2c0.2,0.2,0.5,0.3,0.7,0.5l0.3,0.2c0.2,0.1,0.4,0.2,0.5,0.4
			l0.3,0.2c0.2,0.2,0.5,0.3,0.7,0.5l0.3,0.2c0.2,0.1,0.4,0.2,0.5,0.4l0.3,0.2c0.2,0.2,0.5,0.3,0.7,0.5l0.3,0.2
			c0.2,0.1,0.4,0.2,0.6,0.4l0.3,0.2c0.2,0.1,0.4,0.3,0.6,0.4l0.3,0.2c0.2,0.1,0.4,0.3,0.6,0.4l0.3,0.2c0.2,0.1,0.4,0.2,0.6,0.4
			l0.3,0.2c0.2,0.1,0.5,0.3,0.7,0.4l0.3,0.2c0.2,0.1,0.4,0.2,0.5,0.3l0.3,0.2c0.2,0.1,0.5,0.3,0.7,0.4l1.1,0.7
			c0.2,0.1,0.5,0.3,0.7,0.4l1.1,0.7c0.2,0.1,0.5,0.3,0.7,0.4l0.3,0.2c0.2,0.1,0.4,0.2,0.5,0.3l1.3,0.7c0.2,0.1,0.4,0.2,0.6,0.3
			l1.2,0.7c0.2,0.1,0.5,0.3,0.7,0.4l1.1,0.6c0.2,0.1,0.4,0.3,0.7,0.4l1.1,0.6c0.2,0.1,0.4,0.2,0.7,0.4l0.4,0.2
			c0.2-0.3,0.4-0.7,0.5-1c-21.7-12.1-48.6-30.1-53.5-47c0,0,1.7,0.8,4.6,2.3c8.3,15.1,31.5,30.5,50.7,41.2c2.1-3.9,4.4-8.4,7-13.4
			c-3.3-1.7-6.9-3.5-10.6-5.4L68,77.9z M52,80.4c3.5-0.7,8.5-1.7,13.1-2.6l1.7,0.9c-4.4,0.9-9.1,1.8-13.6,2.7
			C52.7,81,52.3,80.7,52,80.4z M63.7,89.2c-1.4-1-2.8-2-4.2-2.9c5.3-1,11-2.2,16-3.2c1.8,0.9,3.6,1.8,5.4,2.7
			C75.6,86.8,69.3,88.1,63.7,89.2z M120.4,104.3c-2.3-1.1-5-2.5-8.2-4.1l-0.1,0.3l-1.8,3.8c-0.1,0.2-0.2,0.4-0.3,0.6l-0.5,1
			c-0.1,0.2-0.2,0.4-0.3,0.6l-0.8,1.6l-2,3.9l-1,1.9c4.2,2,7.1,3.4,8.3,3.9l-1.7,3.4c0,0-0.4-0.2-1-0.5l-0.5,1.1l2.1,0.9l9.1-18
			L120.4,104.3z M102.9,118.4l2.5,1.2l4.9,2.3l0.5-1.1c-1.3-0.6-3.9-1.8-7.3-3.4L102.9,118.4z"/>
	</g>
	<g id="XMLID_6490_">
		<path id="XMLID_193_" class="st0" d="M78.3,118.7l17.9,9.4l1.1-1.9l-1-0.6c-0.4,0.6-0.6,1-0.6,1l-3.4-1.8
			c3.4-5.8,35.7-61.9,32.1-91.4c1.5-2.9,2.4-4.5,2.4-4.5c9.4,26.6-25.5,88.3-30.4,96.8l1,0.6l2.7-4.7l3.1-5.7l2.2-4.1l2-3.9l0.8-1.6
			c0.1-0.2,0.2-0.4,0.3-0.6l0.5-1c0.1-0.2,0.2-0.4,0.3-0.6l1.8-3.8l0.8-1.8c0.1-0.2,0.2-0.5,0.3-0.7l0.5-1.1
			c0.1-0.2,0.2-0.5,0.3-0.7l0.5-1.2c0.1-0.2,0.2-0.5,0.3-0.7l0.6-1.3c0.1-0.2,0.2-0.4,0.3-0.6l0.6-1.3c0.1-0.2,0.2-0.4,0.3-0.6
			l0.2-0.3c0.1-0.2,0.2-0.5,0.3-0.7l0.5-1.2c0.1-0.3,0.2-0.5,0.3-0.8l0.5-1.2c0.1-0.3,0.2-0.5,0.3-0.8l0.1-0.3
			c0.1-0.2,0.2-0.4,0.2-0.6l0.1-0.3c0.1-0.3,0.2-0.5,0.3-0.8l0.1-0.3c0.1-0.2,0.2-0.4,0.2-0.6l0.1-0.3c0.1-0.2,0.2-0.5,0.3-0.7
			l0.1-0.3c0.1-0.2,0.2-0.5,0.3-0.7l0.1-0.3c0.1-0.2,0.2-0.4,0.2-0.6l0.1-0.3c0.1-0.3,0.2-0.5,0.3-0.8l0.1-0.3
			c0.1-0.2,0.2-0.4,0.2-0.6l0.1-0.3c0.1-0.3,0.2-0.5,0.3-0.8l0.1-0.3c0.1-0.2,0.1-0.4,0.2-0.6l0.1-0.3c0.1-0.3,0.2-0.5,0.3-0.8
			l0.1-0.3c0.1-0.2,0.2-0.4,0.2-0.6l0.1-0.3c0.1-0.3,0.2-0.5,0.3-0.8l0.1-0.3c0.1-0.2,0.2-0.5,0.2-0.7l0.1-0.3
			c0.1-0.2,0.1-0.3,0.2-0.5l0-0.1c0.1-0.3,0.2-0.6,0.3-0.9l0.1-0.2c0.3-0.8,0.5-1.5,0.7-2.3l0.1-0.2c0.1-0.3,0.2-0.6,0.3-0.9
			l0.1-0.3c0.1-0.3,0.2-0.5,0.2-0.8l0.1-0.3c0.1-0.3,0.2-0.5,0.2-0.8l0.1-0.3c0.1-0.3,0.2-0.6,0.2-0.8l0.1-0.3
			c0.1-0.4,0.2-0.7,0.3-1.1l0,0c0.1-0.4,0.2-0.8,0.3-1.2l0-0.1c0.1-0.3,0.2-0.7,0.3-1l0.1-0.3c0.1-0.2,0.1-0.5,0.2-0.7l0.1-0.3
			c0.1-0.2,0.1-0.5,0.2-0.7l0.1-0.3c0.1-0.2,0.1-0.5,0.2-0.7c0-0.1,0.1-0.2,0.1-0.4c0-0.2,0.1-0.4,0.1-0.7l0.1-0.4
			c0-0.2,0.1-0.4,0.1-0.7l0.1-0.4c0-0.2,0.1-0.4,0.1-0.6c0-0.1,0-0.2,0.1-0.4c0-0.2,0.1-0.4,0.1-0.6l0,0c0-0.1,0-0.2,0.1-0.3
			c0-0.2,0.1-0.4,0.1-0.6l0.1-0.4c0-0.2,0.1-0.4,0.1-0.6l0-0.1c0-0.1,0-0.2,0-0.3c0-0.2,0.1-0.4,0.1-0.7l0-0.3
			c0-0.2,0.1-0.5,0.1-0.7l0-0.1c0-0.1,0-0.1,0-0.2c0-0.2,0.1-0.5,0.1-0.7l0-0.2c0-0.3,0.1-0.6,0.1-0.9l0-0.1
			c0.1-0.6,0.1-1.3,0.2-1.9l0-0.2c0-0.2,0-0.5,0-0.7c0-0.1,0-0.1,0-0.2l0-0.1c0-0.2,0-0.4,0-0.6c0-0.1,0-0.1,0-0.2l0-0.1
			c0-0.2,0-0.4,0-0.6c0-0.1,0-0.2,0-0.2l0-0.1c0-0.2,0-0.4,0-0.5c0-0.1,0-0.2,0-0.3l0-0.1c0-0.2,0-0.3,0-0.5c0-0.1,0-0.2,0-0.3
			l0-0.1c0-0.2,0-0.3,0-0.5c0-0.1,0-0.3,0-0.4c0-0.2,0-0.3,0-0.5c0-0.1,0-0.3,0-0.4c0-0.2,0-0.3,0-0.5c0-0.1,0-0.3,0-0.4
			c0-0.2,0-0.3,0-0.5c0-0.1,0-0.3,0-0.4c0-0.2,0-0.3-0.1-0.5c0-0.1,0-0.2,0-0.4c0-0.2,0-0.3-0.1-0.5l0-0.1c0-0.1,0-0.2-0.1-0.3
			c0-0.2-0.1-0.3-0.1-0.4l0-0.1c0-0.1,0-0.2-0.1-0.3c0-0.1-0.1-0.3-0.1-0.4l0-0.1c0-0.1,0-0.2-0.1-0.2c0-0.1-0.1-0.3-0.1-0.4l0-0.1
			c0-0.1,0-0.2-0.1-0.2c0-0.1-0.1-0.3-0.1-0.4l0-0.2c0-0.1,0-0.1-0.1-0.2c0-0.2-0.1-0.3-0.1-0.5l0-0.1c0-0.1,0-0.1,0-0.2
			c-0.1-0.3-0.2-0.5-0.2-0.7l-0.9-2.6l-1.3,2.4c0,0-0.9,1.7-2.4,4.5c-3.3,6.3-9.9,19-17.2,32.9l-7,13.3
			c-9.4,17.9-16.2,30.9-20.3,38.6L78.3,118.7z M120.2,59.8c-4.2,1.9-8.6,3.9-12.7,5.7l0.9-1.7c4.3-1.9,8.9-4,12.2-5.5
			C120.4,58.9,120.3,59.3,120.2,59.8z M100.2,79.5c0.9-1.8,1.9-3.6,2.8-5.3c4.6-2.1,9.9-4.5,14.8-6.7c-0.5,1.6-1.1,3.2-1.7,4.8
			C110.9,74.7,105.1,77.3,100.2,79.5z"/>
	</g>
</g>
<path class="st0" d="M100.2,13.6c-49.7,0-90,40.3-90,90c0,23.9,9.5,46.8,26.4,63.6c35.1,35.1,92.1,35.1,127.3,0s35.1-92.1,0-127.3
	c0,0,0,0,0,0C147,23.1,124.1,13.6,100.2,13.6z M156.2,168c-35.6,30.9-89.5,27.1-120.4-8.4c-27.9-32.1-27.9-79.9,0-112
	c1.2-1.4,3.3-1.5,4.7-0.3c0.1,0.1,0.1,0.1,0.2,0.2l115.6,115.6c1.3,1.3,1.3,3.4,0,4.8C156.3,167.9,156.3,168,156.2,168L156.2,168z
	 M164.6,159.6c-0.6,0.7-1.5,1.1-2.4,1.2c0,0-0.1,0-0.1,0c-0.9,0-1.7-0.4-2.4-1l0,0L44.1,44.2c-1.3-1.3-1.3-3.4,0-4.8
	c0.1-0.1,0.1-0.1,0.2-0.2c35.6-30.9,89.5-27.1,120.4,8.4C192.5,79.8,192.5,127.5,164.6,159.6z"/>
</svg>
