<?xml version="1.0" encoding="utf-8"?>
<!-- Generator: Adobe Illustrator 24.0.2, SVG Export Plug-In . SVG Version: 6.00 Build 0)  -->
<svg version="1.1" id="hari" xmlns="http://www.w3.org/2000/svg" xmlns:xlink="http://www.w3.org/1999/xlink" x="0px" y="0px"
	 viewBox="0 0 200 200" style="enable-background:new 0 0 200 200;" xml:space="preserve">
<style type="text/css">
	.st0{fill:#FFFFFF;}
	.st1{filter:url(#Adobe_OpacityMaskFilter);}
	.st2{mask:url(#SVGID_1_);}
	.st3{filter:url(#Adobe_OpacityMaskFilter_1_);}
	.st4{mask:url(#XMLID_2_);}
</style>
<g>
	<polygon class="st0" points="122.8,118.7 122.8,45.2 82.4,78.3 	"/>
	<polygon class="st0" points="80.2,127.1 122.8,162.1 122.8,133.8 80.2,91.1 	"/>
	<path class="st0" d="M50.9,81c-2.5,0-4.6,2.1-4.6,4.6v36.2c0,2.5,2.1,4.6,4.6,4.6h26.3V88.1L70,81H50.9z M66,117.2h-8.6
		c-0.8,0-1.5-0.7-1.5-1.5s0.7-1.5,1.5-1.5H66c0.8,0,1.5,0.7,1.5,1.5S66.9,117.2,66,117.2L66,117.2z M66,105.1h-8.6
		c-0.8,0-1.5-0.7-1.5-1.5s0.7-1.5,1.5-1.5H66c0.8,0,1.5,0.7,1.5,1.5S66.9,105.1,66,105.1L66,105.1z M66,93.1h-8.6
		c-0.8,0-1.5-0.7-1.5-1.5s0.7-1.5,1.5-1.5H66c0.8,0,1.5,0.7,1.5,1.5S66.9,93.1,66,93.1L66,93.1z"/>
	<path class="st0" d="M125.8,165.9c0,2.7,2.2,4.9,4.9,4.9c2.7,0,4.9-2.2,4.9-4.9v-19.3l-9.8-9.8V165.9z"/>
	<path class="st0" d="M130.7,36.5c-2.7,0-4.9,2.2-4.9,4.9v80.3l9.8,9.8V41.4C135.6,38.7,133.4,36.5,130.7,36.5z"/>
	<path class="st0" d="M161.7,118l-15.9-7.1c-0.8-0.3-1.6,0-2,0.8c-0.3,0.8,0,1.6,0.8,2l15.9,7.1c0.8,0.3,1.6,0,2-0.8
		C162.8,119.2,162.5,118.3,161.7,118z"/>
	<path class="st0" d="M143.7,103.6c0,0.8,0.7,1.5,1.5,1.5h17.4c0.8,0,1.5-0.7,1.5-1.5s-0.7-1.5-1.5-1.5h-17.4
		C144.4,102.1,143.7,102.8,143.7,103.6z"/>
	<path class="st0" d="M144.6,93.7c-0.8,0.3-1.1,1.2-0.8,2c0.3,0.8,1.2,1.1,2,0.8l15.9-7.1c0.8-0.3,1.1-1.2,0.8-2
		c-0.3-0.8-1.2-1.1-2-0.8L144.6,93.7z"/>
	<path class="st0" d="M100.2,13.6c-49.7,0-90,40.3-90,90c0,23.9,9.5,46.8,26.4,63.6c35.1,35.1,92.1,35.1,127.3,0s35.1-92.1,0-127.3
		c0,0,0,0,0,0C147,23.1,124.1,13.6,100.2,13.6z M156.2,168c-35.6,30.9-89.5,27.1-120.4-8.4c-27.9-32.1-27.9-79.9,0-112
		c1.2-1.4,3.3-1.5,4.7-0.3c0.1,0.1,0.1,0.1,0.2,0.2l115.6,115.6c1.3,1.3,1.3,3.4,0,4.8C156.3,167.9,156.3,168,156.2,168L156.2,168z
		 M164.6,159.6c-0.6,0.7-1.5,1.1-2.4,1.2c0,0-0.1,0-0.1,0c-0.9,0-1.7-0.4-2.4-1l0,0L44.1,44.2c-1.3-1.3-1.3-3.4,0-4.8
		c0.1-0.1,0.1-0.1,0.2-0.2c35.6-30.9,89.5-27.1,120.4,8.4C192.5,79.8,192.5,127.5,164.6,159.6z"/>
</g>
</svg>
