<?xml version="1.0" encoding="utf-8"?>
<!-- Generator: Adobe Illustrator 24.0.2, SVG Export Plug-In . SVG Version: 6.00 Build 0)  -->
<svg version="1.1" id="hari" xmlns="http://www.w3.org/2000/svg" xmlns:xlink="http://www.w3.org/1999/xlink" x="0px" y="0px"
	 viewBox="0 0 200 200" style="enable-background:new 0 0 200 200;" xml:space="preserve">
<style type="text/css">
	.st0{fill:#FFFFFF;}
	.st1{filter:url(#Adobe_OpacityMaskFilter);}
	.st2{mask:url(#SVGID_1_);}
	.st3{filter:url(#Adobe_OpacityMaskFilter_1_);}
	.st4{mask:url(#XMLID_2_);}
</style>
<g>
	<g>
		<path class="st0" d="M100.1,188c-1,0-2.1,0-3.1-0.1c-11.9-0.4-23.3-3.1-34-8.1c-5.1-2.4-10.1-5.3-14.7-8.6
			c-4.5-3.3-8.8-7.1-12.6-11.2c-3.8-4.1-7.3-8.6-10.3-13.4c-3-4.8-5.6-9.9-7.6-15.2c-4.2-11-6.1-22.6-5.7-34.5
			c0.4-11.9,3.1-23.3,8.1-34c2.4-5.1,5.3-10.1,8.6-14.7c3.3-4.5,7.1-8.8,11.2-12.6c4.1-3.8,8.6-7.3,13.4-10.3
			c4.8-3,9.9-5.6,15.2-7.6c11-4.2,22.6-6.1,34.5-5.7c11.9,0.4,23.3,3.1,34,8.1c5.1,2.4,10.1,5.3,14.7,8.6c4.5,3.3,8.8,7.1,12.6,11.2
			c3.8,4.1,7.3,8.6,10.3,13.4c3,4.8,5.6,9.9,7.6,15.2c4.2,11,6.1,22.6,5.7,34.5c-0.4,11.9-3.1,23.3-8.1,34
			c-2.4,5.1-5.3,10.1-8.6,14.7c-3.3,4.5-7.1,8.8-11.2,12.6c-4.1,3.8-8.6,7.3-13.4,10.3c-4.8,3-9.9,5.6-15.2,7.6
			C121.4,186.1,110.9,188,100.1,188z M100,14.2c-46,0-84.2,36.6-85.8,82.9c-0.8,22.9,7.4,44.8,23,61.5C52.9,175.3,74.1,185,97,185.8
			c1,0,2,0.1,3,0.1c46,0,84.2-36.6,85.8-82.9l1.1,0l-1.1,0c1.6-47.3-35.5-87.1-82.8-88.8C102,14.2,101,14.2,100,14.2z"/>
		<path class="st0" d="M101.1,158.3c-7.6,0-15-1.4-22-4.2c-7.1-2.9-13.5-7-19.1-12.3c-5.5-5.3-9.9-11.6-13.1-18.6
			c-3.2-7.2-4.9-15-5.1-23c-0.2-8,1.3-15.8,4.2-23.2c2.9-7.1,7-13.5,12.3-19.1C63.8,52.4,70,48,77,44.9c7.2-3.2,15-4.9,23-5.1
			c8-0.2,15.8,1.3,23.2,4.2c7.1,2.9,13.5,7,19.1,12.3c5.5,5.3,9.9,11.6,13.1,18.6c3.2,7.2,4.9,15,5.1,23c0.2,8-1.3,15.8-4.2,23.2
			c-2.9,7.1-7,13.5-12.3,19.1c-5.3,5.5-11.6,9.9-18.6,13.1c-7.2,3.2-15,4.9-23,5.1C101.8,158.3,101.5,158.3,101.1,158.3z
			 M101.1,40.6c-0.4,0-0.7,0-1.1,0c-32.2,0.6-57.9,27.3-57.3,59.5c0.3,15.6,6.6,30.1,17.9,41s26,16.6,41.6,16.3
			c32.2-0.6,57.9-27.3,57.3-59.5C158.9,66.1,132.8,40.6,101.1,40.6z"/>
		<path class="st0" d="M100.1,184.1c-1,0-2,0-3-0.1c-11.3-0.4-22.3-3-32.5-7.7c-4.9-2.3-9.6-5.1-14-8.2c-4.3-3.2-8.4-6.8-12.1-10.7
			c-3.7-3.9-7-8.2-9.8-12.8c-2.9-4.6-5.3-9.5-7.3-14.5c-4-10.5-5.9-21.6-5.5-33c0.4-11.3,3-22.3,7.7-32.5c2.3-4.9,5.1-9.6,8.2-14
			c3.2-4.3,6.8-8.4,10.7-12.1c3.9-3.7,8.2-7,12.8-9.8c4.6-2.9,9.5-5.3,14.5-7.3c10.5-4,21.6-5.9,33-5.5c11.3,0.4,22.3,3,32.5,7.7
			c4.9,2.3,9.6,5.1,14,8.2c4.3,3.2,8.4,6.8,12.1,10.7s7,8.2,9.8,12.8c2.9,4.6,5.3,9.5,7.3,14.5c4,10.5,5.9,21.6,5.5,33l-0.3,0l0.3,0
			c-0.4,11.3-3,22.3-7.7,32.5c-2.3,4.9-5.1,9.6-8.2,14c-3.2,4.3-6.8,8.4-10.7,12.1c-3.9,3.7-8.2,7-12.8,9.8
			c-4.6,2.9-9.5,5.3-14.5,7.3C120.5,182.3,110.4,184.1,100.1,184.1z M99.9,16.5C78.7,16.5,58.6,24.4,43,39
			C26.7,54.2,17.3,74.8,16.6,97.1c-0.8,22.3,7.2,43.5,22.4,59.8c15.2,16.3,35.9,25.7,58.1,26.5c1,0,2,0.1,2.9,0.1
			c21.2,0,41.3-7.9,56.9-22.4c16.3-15.2,25.7-35.9,26.5-58.1c0.8-22.3-7.2-43.5-22.4-59.8c-15.2-16.3-35.9-25.7-58.1-26.5
			C101.9,16.5,100.9,16.5,99.9,16.5z"/>
		<path class="st0" d="M101.1,153.2c-6.9,0-13.7-1.3-20.1-3.9c-6.5-2.6-12.4-6.4-17.4-11.3c-5.1-4.9-9.1-10.6-11.9-17
			c-2.9-6.6-4.5-13.7-4.7-21c-0.1-7.3,1.2-14.4,3.9-21.2c2.6-6.5,6.4-12.4,11.3-17.4s10.6-9.1,17-11.9c6.6-2.9,13.7-4.5,21-4.7
			c7.3-0.1,14.4,1.2,21.2,3.9c6.5,2.6,12.4,6.4,17.4,11.3c5.1,4.9,9.1,10.6,11.9,17c2.9,6.6,4.5,13.7,4.7,21
			c0.1,7.3-1.2,14.4-3.9,21.2c-2.6,6.5-6.4,12.4-11.3,17.4c-4.9,5.1-10.6,9.1-17,11.9c-6.6,2.9-13.7,4.5-21,4.7
			C101.8,153.2,101.4,153.2,101.1,153.2z M101.1,45.2c-0.3,0-0.7,0-1,0c-14.4,0.3-27.8,6.1-37.7,16.5c-10,10.4-15.3,24-15,38.3
			c0.6,29.3,24.6,52.8,53.8,52.8c0.3,0,0.7,0,1,0c29.7-0.6,53.3-25.1,52.8-54.8c-0.3-14.4-6.1-27.8-16.5-37.7
			C128.3,50.6,115.1,45.2,101.1,45.2z"/>
		<path class="st0" d="M101.1,158.3c-7.6,0-15-1.4-22-4.2c-7.1-2.9-13.5-7-19.1-12.4c-5.5-5.3-9.9-11.6-13.1-18.6
			c-3.2-7.3-4.9-15-5.1-23c-0.2-8,1.3-15.8,4.2-23.2c2.9-7.1,7-13.5,12.4-19.1C63.7,52.3,70,47.9,77,44.8c7.3-3.2,15-4.9,23-5.1
			c8-0.2,15.8,1.3,23.2,4.2c7.1,2.9,13.5,7,19.1,12.4c5.5,5.3,9.9,11.6,13.1,18.6c3.2,7.3,4.9,15,5.1,23c0.2,8-1.3,15.8-4.2,23.2
			c-2.9,7.1-7,13.5-12.4,19.1c-5.3,5.5-11.6,9.9-18.6,13.1c-7.3,3.2-15,4.9-23,5.1C101.8,158.3,101.5,158.3,101.1,158.3z
			 M101.1,40.6c-0.4,0-0.7,0-1.1,0c-32.2,0.6-57.9,27.3-57.3,59.5c0.6,31.8,26.7,57.3,58.4,57.3c0.4,0,0.7,0,1.1,0
			c32.2-0.6,57.9-27.3,57.3-59.5C159,66.1,132.8,40.6,101.1,40.6z"/>
		
			<rect x="99.9" y="40.2" transform="matrix(0.9998 -1.888117e-02 1.888117e-02 0.9998 -0.7867 1.8971)" class="st0" width="0.4" height="4.9"/>
		<rect x="94" y="40.6" transform="matrix(0.9924 -0.1233 0.1233 0.9924 -4.5865 11.9394)" class="st0" width="0.4" height="4.9"/>
		<rect x="88.2" y="41.6" transform="matrix(0.974 -0.2263 0.2263 0.974 -7.6795 21.1438)" class="st0" width="0.4" height="4.9"/>
		
			<rect x="82.5" y="43.2" transform="matrix(0.9451 -0.3269 0.3269 0.9451 -10.3948 29.5428)" class="st0" width="0.4" height="4.9"/>
		<rect x="77" y="45.5" transform="matrix(0.9057 -0.4239 0.4239 0.9057 -13.0296 37.2498)" class="st0" width="0.4" height="4.9"/>
		
			<rect x="71.8" y="48.2" transform="matrix(0.8564 -0.5163 0.5163 0.8564 -15.8324 44.4493)" class="st0" width="0.4" height="4.9"/>
		
			<rect x="66.9" y="51.5" transform="matrix(0.7978 -0.6029 0.6029 0.7978 -18.9876 51.3827)" class="st0" width="0.4" height="4.9"/>
		<rect x="62.4" y="55.3" transform="matrix(0.7304 -0.683 0.683 0.7304 -22.6045 58.3334)" class="st0" width="0.4" height="4.9"/>
		<rect x="58.3" y="59.6" transform="matrix(0.655 -0.7556 0.7556 0.655 -26.7098 65.6058)" class="st0" width="0.4" height="4.9"/>
		<rect x="54.7" y="64.3" transform="matrix(0.5724 -0.82 0.82 0.5724 -31.244 73.5052)" class="st0" width="0.4" height="4.9"/>
		
			<rect x="51.6" y="69.3" transform="matrix(0.4836 -0.8753 0.8753 0.4836 -36.063 82.3217)" class="st0" width="0.4" height="4.9"/>
		<rect x="49" y="74.6" transform="matrix(0.3894 -0.9211 0.9211 0.3894 -40.9439 92.3034)" class="st0" width="0.4" height="4.9"/>
		<rect x="47" y="80.1" transform="matrix(0.291 -0.9567 0.9567 0.291 -45.5948 103.6457)" class="st0" width="0.4" height="4.9"/>
		
			<rect x="45.5" y="85.9" transform="matrix(0.1894 -0.9819 0.9819 0.1894 -49.6677 116.4727)" class="st0" width="0.4" height="4.9"/>
		
			<rect x="44.7" y="91.7" transform="matrix(8.573792e-02 -0.9963 0.9963 8.573792e-02 -52.7772 130.8225)" class="st0" width="0.4" height="4.9"/>
		
			<rect x="42.2" y="99.9" transform="matrix(0.9998 -1.894376e-02 1.894376e-02 0.9998 -1.8877 0.8646)" class="st0" width="4.9" height="0.4"/>
		
			<rect x="42.7" y="105.8" transform="matrix(0.9924 -0.1233 0.1233 0.9924 -12.7176 6.3687)" class="st0" width="4.9" height="0.4"/>
		
			<rect x="43.7" y="111.6" transform="matrix(0.9741 -0.2263 0.2263 0.9741 -24.1014 13.3438)" class="st0" width="4.9" height="0.4"/>
		<rect x="45.3" y="117.3" transform="matrix(0.945 -0.327 0.327 0.945 -35.7803 22.0789)" class="st0" width="4.9" height="0.4"/>
		
			<rect x="47.5" y="122.7" transform="matrix(0.9058 -0.4238 0.4238 0.9058 -47.3842 32.7709)" class="st0" width="4.9" height="0.4"/>
		
			<rect x="50.3" y="128" transform="matrix(0.8564 -0.5163 0.5163 0.8564 -58.5824 45.6468)" class="st0" width="4.9" height="0.4"/>
		
			<rect x="53.6" y="132.9" transform="matrix(0.7977 -0.603 0.603 0.7977 -68.8773 60.7228)" class="st0" width="4.9" height="0.4"/>
		<rect x="57.4" y="137.4" transform="matrix(0.7304 -0.683 0.683 0.7304 -77.8065 77.977)" class="st0" width="4.9" height="0.4"/>
		
			<rect x="61.7" y="141.5" transform="matrix(0.655 -0.7556 0.7556 0.655 -84.9111 97.3266)" class="st0" width="4.9" height="0.4"/>
		<rect x="66.3" y="145.1" transform="matrix(0.5723 -0.82 0.82 0.5723 -89.7186 118.5445)" class="st0" width="4.9" height="0.4"/>
		
			<rect x="71.4" y="148.2" transform="matrix(0.4836 -0.8753 0.8753 0.4836 -91.7918 141.2483)" class="st0" width="4.9" height="0.4"/>
		
			<rect x="76.7" y="150.8" transform="matrix(0.3894 -0.9211 0.9211 0.3894 -90.771 165.0616)" class="st0" width="4.9" height="0.4"/>
		
			<rect x="82.2" y="152.8" transform="matrix(0.291 -0.9567 0.9567 0.291 -86.3616 189.4808)" class="st0" width="4.9" height="0.4"/>
		
			<rect x="87.9" y="154.3" transform="matrix(0.1895 -0.9819 0.9819 0.1895 -78.365 213.9366)" class="st0" width="4.9" height="0.4"/>
		
			<rect x="93.8" y="155.1" transform="matrix(8.555072e-02 -0.9963 0.9963 8.555072e-02 -66.6663 237.8651)" class="st0" width="4.9" height="0.4"/>
		
			<rect x="102" y="153" transform="matrix(0.9998 -1.886700e-02 1.886700e-02 0.9998 -2.9147 1.955)" class="st0" width="0.4" height="4.9"/>
		
			<rect x="107.9" y="152.6" transform="matrix(0.9924 -0.1233 0.1233 0.9924 -18.2882 14.5021)" class="st0" width="0.4" height="4.9"/>
		
			<rect x="113.7" y="151.5" transform="matrix(0.974 -0.2263 0.2263 0.974 -31.9025 29.7684)" class="st0" width="0.4" height="4.9"/>
		
			<rect x="119.4" y="149.9" transform="matrix(0.9451 -0.3269 0.3269 0.9451 -43.2437 47.4507)" class="st0" width="0.4" height="4.9"/>
		
			<rect x="124.8" y="147.7" transform="matrix(0.9057 -0.4239 0.4239 0.9057 -51.8631 67.1535)" class="st0" width="0.4" height="4.9"/>
		
			<rect x="130" y="144.9" transform="matrix(0.8564 -0.5163 0.5163 0.8564 -57.3869 88.3878)" class="st0" width="0.4" height="4.9"/>
		
			<rect x="134.9" y="141.6" transform="matrix(0.7978 -0.603 0.603 0.7978 -59.5405 110.6019)" class="st0" width="0.4" height="4.9"/>
		
			<rect x="139.5" y="137.8" transform="matrix(0.7304 -0.683 0.683 0.7304 -58.1566 133.1937)" class="st0" width="0.4" height="4.9"/>
		
			<rect x="143.6" y="133.6" transform="matrix(0.655 -0.7556 0.7556 0.655 -53.1842 155.5392)" class="st0" width="0.4" height="4.9"/>
		
			<rect x="147.2" y="128.9" transform="matrix(0.5724 -0.82 0.82 0.5724 -44.6923 177.0002)" class="st0" width="0.4" height="4.9"/>
		
			<rect x="150.3" y="123.9" transform="matrix(0.4836 -0.8753 0.8753 0.4836 -32.866 196.9775)" class="st0" width="0.4" height="4.9"/>
		
			<rect x="152.9" y="118.6" transform="matrix(0.3894 -0.9211 0.9211 0.3894 -18.009 214.8921)" class="st0" width="0.4" height="4.9"/>
		<rect x="154.9" y="113" transform="matrix(0.291 -0.9567 0.9567 0.291 -0.5198 230.2526)" class="st0" width="0.4" height="4.9"/>
		
			<rect x="156.3" y="107.3" transform="matrix(0.1894 -0.9819 0.9819 0.1894 19.1116 242.6396)" class="st0" width="0.4" height="4.9"/>
		
			<rect x="157.2" y="101.4" transform="matrix(8.573081e-02 -0.9963 0.9963 8.573081e-02 40.3312 251.7399)" class="st0" width="0.4" height="4.9"/>
		
			<rect x="155.1" y="97.8" transform="matrix(0.9998 -1.875037e-02 1.875037e-02 0.9998 -1.8097 2.971)" class="st0" width="4.9" height="0.4"/>
		
			<rect x="154.7" y="91.9" transform="matrix(0.9924 -0.1234 0.1234 0.9924 -10.1667 20.0975)" class="st0" width="4.9" height="0.4"/>
		
			<rect x="153.6" y="86.1" transform="matrix(0.9741 -0.2262 0.2262 0.9741 -15.4712 37.5398)" class="st0" width="4.9" height="0.4"/>
		<rect x="152" y="80.4" transform="matrix(0.945 -0.3269 0.3269 0.945 -17.8659 54.9235)" class="st0" width="4.9" height="0.4"/>
		
			<rect x="149.8" y="75" transform="matrix(0.9057 -0.4239 0.4239 0.9057 -17.4949 71.6074)" class="st0" width="4.9" height="0.4"/>
		
			<rect x="147" y="69.7" transform="matrix(0.8564 -0.5164 0.5164 0.8564 -14.6387 87.2145)" class="st0" width="4.9" height="0.4"/>
		
			<rect x="143.7" y="64.8" transform="matrix(0.7977 -0.603 0.603 0.7977 -9.6512 101.2833)" class="st0" width="4.9" height="0.4"/>
		
			<rect x="139.9" y="60.3" transform="matrix(0.7303 -0.6831 0.6831 0.7303 -2.9466 113.5493)" class="st0" width="4.9" height="0.4"/>
		
			<rect x="135.6" y="56.2" transform="matrix(0.6551 -0.7555 0.7555 0.6551 5.0072 123.7849)" class="st0" width="4.9" height="0.4"/>
		<rect x="131" y="52.6" transform="matrix(0.5725 -0.8199 0.8199 0.5725 13.775 131.9695)" class="st0" width="4.9" height="0.4"/>
		
			<rect x="126" y="49.5" transform="matrix(0.4836 -0.8753 0.8753 0.4836 22.8629 138.0514)" class="st0" width="4.9" height="0.4"/>
		
			<rect x="120.7" y="46.9" transform="matrix(0.3894 -0.9211 0.9211 0.3894 31.8157 142.1284)" class="st0" width="4.9" height="0.4"/>
		
			<rect x="115.1" y="44.9" transform="matrix(0.291 -0.9567 0.9567 0.291 40.2424 144.4093)" class="st0" width="4.9" height="0.4"/>
		
			<rect x="109.4" y="43.4" transform="matrix(0.1894 -0.9819 0.9819 0.1894 47.804 145.1651)" class="st0" width="4.9" height="0.4"/>
		
			<rect x="103.5" y="42.6" transform="matrix(8.572792e-02 -0.9963 0.9963 8.572792e-02 54.2358 144.7277)" class="st0" width="4.9" height="0.4"/>
	</g>
	<rect x="80.6" y="18.7" transform="matrix(0.9478 -0.319 0.319 0.9478 -5.6248 27.4441)" class="st0" width="0.9" height="24.3"/>
	<rect x="49" y="37.5" transform="matrix(0.6614 -0.7501 0.7501 0.6614 -20.7033 53.9595)" class="st0" width="0.9" height="24.9"/>
	
		<rect x="30.7" y="69.6" transform="matrix(0.1973 -0.9803 0.9803 0.1973 -55.6933 96.5566)" class="st0" width="0.9" height="25.4"/>
	<rect x="19" y="119" transform="matrix(0.9478 -0.3189 0.3189 0.9478 -36.422 16.4775)" class="st0" width="26.2" height="0.9"/>
	
		<rect x="38.1" y="150.7" transform="matrix(0.6769 -0.736 0.736 0.6769 -94.6494 86.5692)" class="st0" width="26.4" height="0.9"/>
	
		<rect x="71.5" y="168.3" transform="matrix(0.1978 -0.9803 0.9803 0.1978 -97.7812 218.0742)" class="st0" width="25.7" height="0.9"/>
	<rect x="121" y="155" transform="matrix(0.9478 -0.3189 0.3189 0.9478 -47.1605 47.4933)" class="st0" width="0.9" height="25.6"/>
	
		<rect x="152.4" y="135.7" transform="matrix(0.6614 -0.7501 0.7501 0.6614 -59.3763 164.791)" class="st0" width="0.9" height="24.9"/>
	
		<rect x="169.8" y="103.5" transform="matrix(0.1977 -0.9803 0.9803 0.1977 23.1624 259.631)" class="st0" width="0.9" height="24.3"/>
	
		<rect x="157.1" y="78.6" transform="matrix(0.948 -0.3184 0.3184 0.948 -16.3737 57.8761)" class="st0" width="23.6" height="0.9"/>
	
		<rect x="138" y="47.4" transform="matrix(0.6602 -0.7511 0.7511 0.6602 14.9508 128.7437)" class="st0" width="23.5" height="0.9"/>
	
		<rect x="105.8" y="29.8" transform="matrix(0.1962 -0.9806 0.9806 0.1962 64.9219 139.6996)" class="st0" width="23.7" height="0.9"/>
	<polygon class="st0" points="101.5,45.1 100,42.6 101.4,40.1 98.6,40.1 100.1,42.6 98.7,45.2 	"/>
	<polygon class="st0" points="74.5,52.1 72,50.7 71.9,47.8 69.5,49.2 72,50.7 72.1,53.6 	"/>
	<polygon class="st0" points="54.6,71.6 51.7,71.7 50.2,69.2 48.8,71.7 51.7,71.7 53.2,74.1 	"/>
	<polygon class="st0" points="47.1,98.5 44.6,100 42.1,98.6 42.1,101.5 44.7,100 47.2,101.4 	"/>
	<polygon class="st0" points="54,125.8 52.5,128.3 49.6,128.4 51.1,130.8 52.6,128.3 55.4,128.2 	"/>
	<polygon class="st0" points="73.8,145.6 73.8,148.5 71.4,150 73.8,151.3 73.8,148.4 76.3,146.9 	"/>
	<polygon class="st0" points="100.7,152.9 102.2,155.4 100.8,158 103.6,157.9 102.2,155.4 103.5,152.9 	"/>
	<polygon class="st0" points="127.7,145.9 130.2,147.3 130.3,150.2 132.7,148.8 130.2,147.3 130.1,144.4 	"/>
	<polygon class="st0" points="147.6,126.4 150.5,126.4 152.1,128.9 153.4,126.4 150.5,126.4 149,123.9 	"/>
	<polygon class="st0" points="155,99.4 157.5,98 160.1,99.4 160,96.5 157.5,98 155,96.6 	"/>
	<polygon class="st0" points="148.1,72.4 149.5,69.9 152.4,69.8 150.9,67.4 149.5,69.9 146.6,70 	"/>
	<polygon class="st0" points="128.4,52.5 128.4,49.6 130.9,48.1 128.4,46.7 128.4,49.6 125.9,51.1 	"/>
	<g>
		<path class="st0" d="M137.9,43.5c-0.3,0.1-0.5,0-0.8,0c-0.2-0.1-0.5,0-0.9-0.1c-0.4,0.1-0.4-0.1-0.9,0c-0.3,0.1-0.5-0.2-0.8-0.1
			c-0.3,0.1-0.5,0-0.9,0c-0.4,0-0.6-0.1-0.9-0.1c-0.4,0.1-0.6,0-0.8,0c-0.4,0-0.4,0-0.7,0c-0.4,0-0.4-0.8,0.1-0.7
			c0.5,0.1,0.7,0,1.1,0c0.3,0,0.7-0.3,0.6-0.5c0.1-0.5,0.1-0.6,0.1-1c0.1-0.2-0.1-0.6,0-0.8c0-0.4,0-0.4,0-0.8
			c-0.1-0.2,0.1-0.5,0-0.8c-0.1-0.3,0.1-0.6,0-0.8c0-0.5,0.3-0.5,0-0.8c-0.1-0.2,0-0.6,0-0.8c0.1-0.4-0.1-0.5,0-0.8
			c0-0.4-0.1-0.6,0-0.8c0.3-0.4-0.1-0.4,0-0.8c0.2-0.4-0.1-0.6,0-0.9c0.1-0.2,0-0.6,0-0.8c0.2-0.4-0.1-0.4,0-0.8
			c0.1-0.5-0.2-0.7,0-1c0.1-0.3-0.2-0.5-0.6-0.5c-0.5,0-0.8,0-1.2-0.1c-0.5-0.1-0.3-0.8,0.2-0.7c0.4,0.1,0.4,0,0.7,0
			c0.3,0.2,0.4,0,0.7,0c0.4,0.1,0.5,0.2,0.9,0.1c0.2-0.1,0.5,0.2,0.8,0c0.3,0,0.5,0.1,0.9,0c0.2-0.1,0.6,0.1,0.9,0
			c0.4-0.1,0.6,0,0.8,0c0.3-0.1,0.4,0.1,0.7,0c0.3-0.1,0.4,0.8-0.1,0.7c-0.4,0-0.7-0.1-1.2,0c-0.4,0.2-0.5,0.3-0.6,0.6
			c-0.1,0.4,0.1,0.6,0,0.9c-0.1,0.4,0,0.6,0,0.8c0,0.3-0.1,0.6,0,0.8c0,0.4-0.1,0.6,0,0.9c-0.1,0.4,0,0.4,0,0.8
			c-0.2,0.4,0.2,0.4,0,0.8c-0.3,0.5,0.1,0.7,0,0.8c-0.2,0.4-0.1,0.6,0,0.8c0,0.2,0.1,0.6,0,0.8c-0.1,0.2,0,0.5,0,0.7
			c0,0.2-0.2,0.4,0,0.8c0.1,0.3-0.2,0.6,0,1c0.1,0.3-0.1,0.6,0,0.8c0.1,0.3,0,0.8,0,1c0,0.3,0.2,0.5,0.6,0.5
			c0.5,0.2,0.7,0.1,1.2,0.1C138.2,42.9,138.1,43.5,137.9,43.5z"/>
	</g>
	<g>
		<path class="st0" d="M157.7,64.1c-0.1-0.4-0.1-0.6,0-0.8c0.3-0.4-0.2-0.5,0-0.8c0.2-0.4-0.1-0.6,0-0.8c0.2-0.2,0.1-0.7,0-0.8
			c-0.1-0.3,0-0.6,0-0.8c0.1-0.1-0.1-0.5,0-0.8c0.1-0.4-0.1-0.6,0-0.8c0.1-0.2,0-0.7,0-0.8c0-0.2,0.1-0.8,0-1.1
			c0-0.3-0.5-0.4-0.7-0.4c-0.3,0.1-0.8,0-1.1,0c-0.5-0.1-0.5-0.6,0.1-0.8c0.1-0.1,0.3,0,0.6,0c0.2,0,0.5,0.1,0.9,0.1
			c0.2-0.1,0.5,0.1,0.8,0c0.3,0.1,0.7,0,0.8,0c0.2-0.1,0.5,0.1,0.8,0c0.3,0,0.4,0.1,0.8,0c0.1,0,0.5,0,0.8,0c0.3,0.1,0.6,0,0.9,0
			c0.3,0.1,0.5-0.1,0.8,0c0.2,0.1,0.6,0.1,0.8,0c0.3,0,0.7,0,0.9,0c0.1,0,0.4-0.1,0.8,0c0.2,0.1,0.5,0,0.8,0c0.2,0.1,0.7,0.1,0.8,0
			c0.3-0.1,0.5,0.2,0.6,0c0.3-0.1,0.5-0.1,0.8,0c0.4-0.1,0.6,0.6,0,0.7c-0.4,0-0.7-0.1-1.1,0c-0.4-0.1-0.6,0.1-0.7,0.4
			c-0.2,0.5,0.1,0.7-0.1,1.1c-0.2,0.3,0.1,0.6,0,0.8c-0.1,0.4-0.1,0.6,0,0.8c0,0.2-0.1,0.7,0,0.8c0,0.2-0.2,0.5,0,0.8
			c0,0.3,0,0.6,0,0.8c-0.1,0.3-0.1,0.5,0,0.8c0,0.3-0.1,0.5,0,0.8c0,0.2-0.1,0.7,0,0.8c-0.2,0.3,0,0.5,0,0.9c0.1,0.2,0,0.6,0,0.8
			c0,0.3,0,0.6,0,0.8c0,0.4,0,0.6,0,0.8c0.1,0.4-0.1,0.9,0,1.1c-0.1,0.1,0.4,0.4,0.6,0.4c0.3,0.2,0.7,0.1,1.2,0.1
			c0.4,0,0.5,0.7,0,0.7c-0.4,0-0.7-0.2-0.8-0.1c-0.2,0.1-0.4,0-0.6-0.1c-0.3,0.1-0.6,0-0.8,0c-0.4,0.1-0.5-0.1-0.8,0
			c-0.4,0.1-0.7-0.1-0.8,0c-0.2,0.1-0.5,0.1-0.9,0c-0.2-0.1-0.6,0-0.8,0c-0.3-0.1-0.5,0-0.8,0l-0.9,0c-0.3-0.1-0.5,0-0.8,0
			c-0.2-0.1-0.6,0.1-0.8,0c-0.4-0.1-0.6,0.1-0.8,0c-0.2,0-0.6,0-0.8,0c-0.2,0.1-0.4-0.1-0.6,0c-0.4,0.1-0.5,0-0.8,0
			c-0.4,0-0.5-0.1-0.8-0.1c-0.4,0-0.5-0.8,0.1-0.7c0.5,0,0.6,0,1.1,0.1c0.1,0.1,0.6-0.1,0.7-0.5c0-0.4-0.1-0.8,0-1.1
			c0.2-0.3-0.1-0.6,0-0.8c0.2-0.3,0.1-0.6,0-0.8c-0.1-0.2,0.1-0.6,0-0.8L157.7,64.1z M164.1,62.7c0.1-0.3,0.1-0.6,0-0.8
			c0.1-0.4,0-0.5,0-0.8c0-0.1,0.1-0.6,0-0.8c-0.1-0.3,0-0.4,0-0.8c-0.1-0.2,0.1-0.4,0-0.8c-0.1-0.2,0.1-0.5,0-0.8
			c-0.1-0.4,0-0.5,0-1c0-0.2-0.3-0.5-0.6-0.6c-0.3-0.1-0.6,0-1-0.1c-0.4,0-1-0.1-1.2,0c-0.3,0-0.6,0.1-0.5,0.5c-0.1,0.4,0,0.7-0.1,1
			c-0.1,0.2-0.2,0.5,0,0.8c-0.1,0.2,0.1,0.5,0,0.8c0.1,0.3-0.1,0.5,0,0.8c0,0.3,0,0.5,0,0.8c-0.1,0.4,0,0.7,0,0.8
			c-0.1,0.4,0,0.7,0,0.8c0,0.2-0.1,0.5,0,0.8c0.1,0.3-0.1,0.5,0,0.8c0,0.4,0.1,0.5,0,0.9c-0.1,0.4,0,0.7,0,0.8
			c-0.1,0.2-0.1,0.7,0,0.8c-0.1,0.2,0,0.5,0,0.8c-0.1,0.3,0,0.9,0,1.3c0.1,0.2,0.2,0.4,0.4,0.4c0.3,0.1,1,0.1,1.3,0
			c0.5,0,0.9,0.1,1.3,0c0.2,0,0.4-0.1,0.4-0.4c-0.1-0.2-0.1-0.8,0-1.3c0-0.3,0.1-0.6,0-0.8c-0.1-0.2-0.1-0.7,0-0.8
			c0.1-0.2,0.1-0.6,0-0.8c-0.1-0.2,0-0.6,0-0.9c0-0.2,0.1-0.4,0-0.8C164,63.2,164.3,62.9,164.1,62.7z"/>
	</g>
	<g>
		<path class="st0" d="M176.5,105.6c-0.5-0.1-1-0.1-1.3-0.1c-0.4,0-0.8,0.1-1.2,0c-0.3,0.1-0.9-0.1-1.2,0c-0.5,0.1-0.7-0.1-1.2,0
			c-0.5,0.1-0.8-0.1-1.2,0c-0.3,0.1-0.7-0.1-1.2,0c-0.4,0.1-0.9,0-1.2,0c-0.3,0.1-0.9-0.1-1.2,0c-0.5,0.1-0.8,0-1.2,0
			c-0.4,0-0.9,0-1.2,0c-0.4,0.2-0.6,0-0.9,0c-0.4,0-0.6,0.1-1,0c-0.8,0-0.4-0.9,0-0.8c0.5,0.1,0.5,0,1,0.1c0.3,0,0.5-0.2,0.6-0.5
			c-0.1-0.3,0-0.6,0-1.1c0-0.4-0.1-0.5,0-0.8c0-0.2-0.1-0.5,0-0.8c0.3-0.5-0.1-0.5,0-0.8c0.2-0.3,0-0.6,0-0.8c0-0.2,0-0.7,0-0.8
			c0-0.1,0.1-0.4,0-0.8c0-0.3,0.1-0.6,0-0.8c-0.1-0.3-0.1-0.7,0-0.9c-0.1-0.2-0.1-0.5,0-0.8c-0.1-0.2,0.1-0.5,0-0.8
			c0.1-0.4,0.1-0.4,0-0.8c-0.1-0.3,0-0.4,0-0.8c0.1-0.4,0-0.7,0-1.1c0-0.3-0.5-0.4-0.7-0.5c-0.3,0.1-0.7,0.1-1.1,0
			c-0.5-0.1-0.5-0.7,0-0.8c0.3,0,0.6,0,1.1,0.1c0.3,0,0.8,0,1.1,0.1c0.5,0,0.7-0.1,1.2,0c0.4,0.1,0.8,0,1.2,0c0.3,0.1,0.8,0.1,1.2,0
			c0.3,0.1,0.8,0.1,1.2,0c0.4,0,0.7,0,1.2,0c0.5,0,0.7,0,1.2,0c0.5,0.2,0.9,0,1.2,0c0.3,0.1,0.8,0.1,1.2,0c0.3,0,0.7,0.1,1.2,0
			c0.3-0.1,0.7,0.2,1.1,0.1c0.4,0,0.5,0.4,0.8,0.1c0.3,0,1.2,0.1,1.7,0c0.3-0.1,0.6,0.2,1.1,0.1c0.5-0.1,0.7,0,1,0
			c0.3,0,0.5,0.7,0,0.7c-0.3,0-0.7-0.1-1.1,0c-0.4,0-0.4,0.2-0.6,0.5c-0.1,0.3-0.1,0.7-0.1,0.9c0.1,0.2-0.2,0.5,0,0.8
			c0.1,0.3,0.1,0.7,0,0.8c0,0.2-0.1,0.6,0,0.8c0,0.2,0.1,0.6,0,0.8c-0.1,0.2,0.1,0.6,0,0.9c0,0.2,0,0.6,0,0.8c0.1,0.2,0,0.7,0,0.8
			c-0.1,0.2-0.1,0.6,0,0.8c0,0.3-0.1,0.6,0,0.8c0,0.2,0,0.7,0,0.8c-0.1,0.3,0,0.6,0,0.8c-0.1,0.3-0.1,0.6,0,0.8c0,0.2-0.1,0.6,0,1
			c0,0.4,0.4,0.5,0.6,0.6c0.3,0,0.6,0.1,1.1,0.1c0.4,0,0.6,0.7,0,0.7c-0.5,0-0.7,0-1,0c-0.4,0.1-0.7-0.2-1.1-0.1
			c-0.6,0.2-0.7,0-1.2,0L176.5,105.6z M170.3,102.3c0-0.3-0.1-0.5,0-0.8c-0.1-0.2,0-0.5,0-0.8c0.1-0.2-0.1-0.4,0-0.8
			c-0.1-0.3,0-0.6,0-0.8c0-0.3-0.1-0.4,0-0.8c-0.1-0.3-0.1-0.4,0-0.8c0.1-0.2-0.1-0.5,0-0.9c-0.1-0.2-0.1-0.5,0-0.8
			c-0.1-0.2,0-0.6,0-0.8c-0.1-0.2-0.1-0.4,0-0.8c0-0.3,0.1-0.6,0-0.8c0-0.2,0-0.6,0-1c0.1-0.3-0.2-0.6-0.7-0.5c-0.2,0-0.6-0.1-0.9,0
			c-0.3-0.1-0.6,0.1-0.8,0c-0.2,0.1-0.5,0.1-0.6,0.3c-0.2,0.5-0.1,0.8,0,1.2c0,0.3,0.1,0.5,0,0.8c-0.1,0.4-0.2,0.5,0,0.8
			c0.1,0.3,0.1,0.6,0,0.8c-0.1,0.4-0.1,0.6,0,0.8c0,0.4,0.1,0.7,0,0.9c-0.1,0.3,0.1,0.5,0,0.8c0.1,0.3,0.1,0.5,0,0.8
			c0.1,0.2-0.1,0.6,0,0.8c0,0.4,0,0.5,0,0.8c-0.1,0.3,0.2,0.5,0,0.8c-0.2,0.3,0.2,0.5,0,0.8c-0.3,0.4,0.1,0.6,0,0.9
			c-0.2,0.4,0,0.7,0,1.1c0,0.3,0.3,0.4,0.7,0.5c0.3,0,0.5,0,0.9,0c0.2,0.1,0.5,0,0.9,0c0.3,0.1,0.6-0.2,0.6-0.4c0-0.4,0.1-0.9,0-1.2
			C170.2,103,170.4,102.7,170.3,102.3z M176.4,100c0.3-0.5-0.1-0.6,0-0.8c0.2-0.4-0.1-0.4,0-0.8c0.1-0.3,0-0.5,0-0.8
			c0-0.2,0.1-0.4,0-0.9c0-0.3,0-0.5,0-0.8c-0.1-0.3,0.1-0.7,0-0.8c0.1-0.4,0-0.5,0-0.8c0.1-0.3,0.1-0.6,0-0.8c0-0.4,0-0.7,0-1.1
			c-0.1-0.2-0.2-0.4-0.6-0.4c-0.2,0-0.7,0-1-0.2c-0.4,0.1-0.7,0.1-0.9,0.1c-0.4,0-0.4,0.3-0.5,0.6c-0.2,0.5,0.1,0.6-0.1,0.9
			c-0.1,0.3-0.1,0.6,0,0.8c0.1,0.3-0.3,0.5,0,0.8c0,0.3,0,0.6,0,0.8c0,0.2-0.1,0.5,0,0.8c0,0.3-0.1,0.5,0,0.9
			c-0.1,0.4-0.1,0.7,0,0.8c0,0.3-0.2,0.6,0,0.8c0.1,0.3-0.1,0.6,0,0.8c-0.1,0.2,0,0.6,0,0.8c0,0.2,0.1,0.6,0,0.8
			c-0.1,0.4-0.1,0.7,0,0.8c0,0.2,0.1,0.4,0,0.8c-0.2,0.3,0,0.9,0,1.1c-0.2,0.4,0.4,0.5,0.7,0.6c0.3-0.1,0.5,0.1,0.9,0
			c0.3-0.1,0.5-0.1,0.9,0c0.3,0,0.6-0.2,0.6-0.4c-0.1-0.5,0.1-0.8,0-1.2c-0.1-0.2,0.3-0.5,0-0.8c0-0.3,0.1-0.6,0-0.8
			c0-0.1,0.1-0.4,0-0.8L176.4,100z"/>
	</g>
	<g>
		<path class="st0" d="M175.6,127.1c-0.2,0.1-0.3-0.1-0.5,0c-0.3,0-0.5,0-0.7,0c-0.2,0.1-0.3,0.1-0.5,0.3c-0.1,0.2,0,0.2-0.2,0.4
			c-0.1,0,0,0.2-0.1,0.3c-0.2,0.2,0,0.3-0.2,0.5c-0.1,0.2,0,0.3-0.1,0.4c-0.1,0.2,0,0.6-0.2,0.7c-0.2,0.4-0.3,0.6-0.3,0.8
			c-0.1,0.3-0.3,0.6-0.3,0.9c-0.2,0.4,0,0.6-0.3,0.9c-0.3,0.3,0,0.5-0.3,0.9c-0.2,0.3-0.1,0.6-0.3,0.9c-0.2,0.2-0.2,0.6-0.3,0.9
			c-0.1,0.2-0.3,0.7-0.3,0.9c-0.1,0.4-0.3,0.7-0.3,0.9c0,0.4-0.2,0.5-0.3,0.9c-0.2,0.2-0.1,0.6-0.3,0.8c-0.2,0.4-0.2,0.7-0.3,1
			c-0.2,0.4-0.2,0.6-0.3,1c0,0.1-0.2,0.3-0.1,0.5c-0.1,0.2-0.1,0.4-0.2,0.5c-0.2,0.1-0.3,0.1-0.7,0.1c-0.5,0-0.4,0-0.8,0
			c-0.3,0-0.3-0.3-0.3-0.6c-0.1-0.3-0.2-0.4-0.1-0.6c-0.1-0.3,0-0.3-0.2-0.7c-0.2-0.2-0.1-0.6-0.2-0.7c-0.1-0.2,0-0.4-0.2-0.7
			c-0.1-0.3-0.1-0.5-0.3-1c0-0.2-0.3-0.7-0.3-1c0-0.4-0.1-0.7-0.3-1c0-0.3-0.1-0.8-0.3-1c-0.2-0.3-0.2-0.5-0.3-1
			c-0.1-0.4-0.3-0.7-0.3-1c-0.1-0.2-0.3-0.6-0.3-1c0-0.2-0.3-0.5-0.3-1c0-0.3-0.1-0.5-0.3-0.9c0-0.4-0.4-0.7-0.3-1.1
			c0.1-0.4-0.3-0.6-0.3-0.9c0-0.3-0.2-0.5-0.4-0.6c-0.6-0.1-0.7-0.1-1.2-0.1c-0.1,0-0.5,0.2-0.4,0.4c0,0.4-0.1,0.9,0,1.3
			c-0.1,0.4-0.1,0.6,0,0.8c0,0.2,0,0.6,0,0.8c-0.1,0.4-0.1,0.6,0,0.8c-0.2,0.4,0,0.7,0,0.8c-0.1,0.4-0.1,0.6,0,0.8
			c-0.1,0.4-0.1,0.7,0,0.8c0,0.3-0.2,0.6,0,0.8c-0.1,0.4-0.1,0.6,0,0.8c0.1,0.2-0.1,0.5,0,0.8c0.1,0.3-0.2,0.4,0,0.8
			c0,0.3,0.1,0.6,0,0.8c0.1,0.3-0.1,0.7,0,0.8c0.1,0.4,0,0.7,0,1.1c0,0.2,0.3,0.5,0.5,0.5c0.5,0.1,0.8,0,1.3,0.1
			c0.3,0,0.3,0.8,0.1,0.7c-0.4,0.1-0.6,0-0.8,0c-0.4,0-0.7-0.1-0.9-0.1c-0.3,0.1-0.4-0.2-0.8-0.1c-0.2,0.1-0.7,0-0.9,0
			c-0.4,0.1-0.6,0-0.9,0c-0.4,0-0.6,0.2-0.8,0.1c-0.2,0-0.6,0-0.8-0.1c-0.2,0-0.4,0-0.7,0c-0.5,0-0.5-0.6-0.2-0.7
			c0.3-0.1,0.7,0,1.3,0c0.3,0,0.5-0.1,0.7-0.4c-0.1-0.2,0.1-0.9,0-1.1c0-0.4-0.2-0.5,0-0.8c0.3-0.4-0.2-0.5,0-0.8
			c0.1-0.3-0.1-0.5,0-0.8c0-0.3,0-0.4,0-0.8c0.1-0.1,0.1-0.6,0-0.8c0-0.2-0.1-0.6,0-0.8c0.1-0.4,0.1-0.7,0-0.8c0-0.2,0.1-0.5,0-0.8
			c0.1-0.3,0-0.5,0-0.8c0.1-0.2,0-0.6,0-0.8c-0.1-0.2-0.1-0.5,0-0.8c0-0.2,0.1-0.5,0-0.8c-0.1-0.4,0-0.8,0-1.1
			c0-0.5-0.5-0.5-0.7-0.5c-0.3-0.2-0.7-0.1-1.1-0.1c-0.3,0-0.6-0.7,0.1-0.7c0.2,0,0.4,0.1,0.7,0c0.1,0.1,0.5,0.1,0.6,0
			c0.2,0.1,0.3-0.1,0.7,0c0.3,0.1,0.4-0.1,0.7,0c0.5,0,1,0.1,1.5,0.1c0.5-0.1,1,0.2,1.5,0.1c0.6,0.2,1,0.1,1.5,0.1
			c0.6,0,0.9,0,1.5,0.1c0.3,0,0.5,0.2,0.7,0c0.2-0.1,0.4,0.1,0.7,0c0.3-0.1,0.4,0.1,0.7,0c0.3,0.1,0.4-0.1,0.7,0
			c0.3,0.1,0.3,0.8-0.1,0.7c-0.2,0-0.7,0-1-0.1c-0.4-0.1-0.6,0.1-0.7,0.3c0,0.3-0.1,0.5,0.1,0.7c0.1,0.3,0.1,0.5,0.2,0.8
			c0,0.3,0.1,0.6,0.2,0.8c0,0.3,0,0.6,0.2,0.8c-0.1,0.4,0.1,0.5,0.2,1c0,0.4,0.2,0.8,0.3,1c0.2,0.3,0.1,0.5,0.3,1
			c0,0.4,0.2,0.7,0.3,1c0,0.4,0.1,0.7,0.3,1c0.1,0.3,0.2,0.8,0.3,1c0,0.3-0.1,0.4,0.1,0.5c0.1,0.3,0.2,0.5,0.4,0.5
			c0.3,0,0.3-0.2,0.4-0.4c0-0.2,0.3-0.4,0.2-0.7c0-0.4,0.2-0.3,0.3-0.8c0-0.3,0.2-0.4,0.3-0.9c0.2-0.2,0.1-0.7,0.3-0.9
			c0-0.2,0.1-0.7,0.3-1c0.1-0.3,0.1-0.5,0.3-0.9c0.2-0.4,0.1-0.6,0.3-0.9c0.3-0.2,0-0.5,0.2-0.6c0.1-0.3,0.2-0.5,0.3-0.9
			c0.2-0.1,0.2-0.4,0.1-0.5c0.1-0.4,0.2-0.3,0.2-0.6c0-0.2,0.1-0.5,0.1-0.8c0-0.3-0.4-0.5-0.6-0.4c-0.2,0.1-0.3,0-0.5,0
			c-0.2,0.1-0.3-0.1-0.7,0c-0.5,0.1-0.4-0.6,0-0.6c0.4,0,0.5,0,1,0.1c0.3,0,0.8,0,1.2,0c0.3,0.1,0.8,0.1,1.1,0c0.3,0,0.5,0,1,0
			C175.9,126.5,175.8,127.1,175.6,127.1z"/>
	</g>
	<g>
		<path class="st0" d="M145.4,155.8c-0.3-0.1-0.4,0-0.6,0c-0.1,0.1-0.4,0-0.6,0c-0.5,0.1-0.5,0.3-0.7,0.6c-0.2,0.4,0,0.4-0.3,0.6
			c-0.3,0.2,0,0.4-0.2,0.5c-0.2,0.3-0.1,0.3-0.2,0.6c-0.1,0.6-0.2,0.8-0.4,1.2c0,0.4-0.2,0.7-0.3,0.8c0,0.4-0.3,0.6-0.3,0.9
			c-0.1,0.2-0.3,0.6-0.3,0.9c0,0.3-0.3,0.5-0.3,0.9c-0.2,0.4-0.2,0.6-0.3,0.9c-0.1,0.3-0.3,0.6-0.3,0.9c-0.1,0.4-0.2,0.6-0.3,0.9
			c-0.2,0.4-0.2,0.5-0.3,0.9c0,0.2-0.3,0.5-0.3,0.9c0,0.3-0.3,0.2-0.2,0.5c0.1,0.2-0.3,0.3-0.2,0.6c-0.1,0.3-0.3,0.6-0.2,0.8
			c0,0.3-0.1,0.2-0.1,0.5c-0.2,0.1,0,0.4-0.2,0.5c-0.3,0.2-0.6,0.1-0.8,0c-0.4-0.1-0.8,0.1-0.9-0.1c0-0.1-0.2-0.3-0.1-0.6
			c0-0.2-0.3-0.2-0.2-0.6c-0.1-0.5-0.3-0.5-0.3-1c0.2-0.4-0.2-0.5-0.2-0.7c-0.2-0.2-0.1-0.7-0.3-0.9c-0.2-0.3-0.1-0.6-0.3-0.9
			c-0.2-0.2-0.1-0.7-0.3-0.9c-0.2-0.4-0.3-0.7-0.3-0.9c-0.1-0.2-0.2-0.5-0.3-0.9c0-0.2-0.3-0.7-0.3-0.9c-0.2-0.2-0.1-0.7-0.3-0.9
			c-0.2-0.3-0.2-0.7-0.3-0.9c-0.2-0.3-0.2-0.6-0.3-0.9c0-0.4-0.4-0.5-0.3-0.9c0.1-0.3-0.3-0.5-0.3-0.9c0-0.4-0.3-0.2-0.3-0.6
			c0-0.2-0.1-0.4-0.2-0.5c-0.2-0.1-0.1-0.2-0.3-0.2c-0.3,0-0.3,0-0.6-0.1c-0.3,0-0.5,0-0.8,0c-0.5,0-0.4-0.8,0-0.7
			c0.3,0,0.6,0.1,0.8,0c0.3,0.1,0.8,0,1,0.1c0.2,0,0.5,0,1,0.1c0.3-0.2,0.4,0,0.8,0c0.3-0.1,0.6,0.1,0.8,0.1c0.4-0.1,0.8,0.1,1,0
			c0.2-0.1,0.3,0.2,0.7,0c0.3,0,0.5,0.1,0.9,0c0.4-0.1,0.4,0.7-0.1,0.6c-0.2,0-0.9,0-1.2,0c-0.5,0.1-0.5,0.3-0.4,0.7
			c-0.1,0.4,0.2,0.9,0.3,1.3c0.1,0.2-0.3,0.4,0.2,0.7c0.1,0.3,0.3,0.9,0.4,1.2c0.1,0.4,0.3,0.6,0.3,1c0,0.2,0.1,0.7,0.3,0.9
			c0.3,0.3,0.1,0.7,0.3,1c0.3,0.3,0.2,0.6,0.3,1c0.1,0.4,0.2,0.6,0.3,1c0.1,0.4,0.1,0.5,0.3,1c0,0.1,0.1,0.5,0.2,0.6
			c0.1,0.4,0.4,0.6,0.7,0.3c0.2-0.2,0.3-0.6,0.3-0.8c0-0.4,0.3-0.5,0.3-0.9c0.1-0.3,0.2-0.5,0.3-0.9c0-0.4,0.2-0.6,0.3-0.9
			c-0.1-0.2,0.3-0.7,0.3-0.9c0-0.3,0.1-0.5,0.3-0.9c0-0.4,0.1-0.5,0.3-0.9c0-0.2,0.3-0.6,0.3-0.9c0.1-0.2,0.3-0.4,0.2-0.7
			c0-0.4,0.3-0.2,0.3-0.8c0-0.4,0.1-0.4,0.2-0.8c0.1-0.2,0.1-0.5,0.1-0.7c0-0.2-0.5-0.4-0.7-0.3c-0.2,0-0.3-0.1-0.6-0.1
			c-0.2,0-0.4,0-0.7,0c-0.5-0.1-0.3-0.7,0.1-0.6c0.5,0,0.8,0.1,1.1,0.1c0.4,0.1,0.7,0.1,1.2,0.1c0.4,0,0.9,0,1.2,0c0.4,0,0.6,0,1,0
			C145.7,155.1,145.7,155.8,145.4,155.8z"/>
	</g>
	<g>
		<path class="st0" d="M101.9,174.1c0,0.4-0.2,0.7-0.4,0.9c-0.2,0.2,0,0.4-0.2,0.8c-0.2,0.2,0,0.5-0.3,0.8c-0.2,0.3-0.3,0.9-0.4,1.2
			c-0.1,0.4-0.3,0.8-0.4,1.2c0,0.3,0,0.4-0.2,0.6c-0.2,0.2-0.5,0.1-0.8,0.1c-0.2-0.1-0.6,0-0.9-0.1c-0.3-0.1-0.1-0.3-0.2-0.7
			c0-0.2-0.1-0.3-0.1-0.6c0.1-0.2-0.2-0.2-0.1-0.5c0-0.3-0.3-0.3-0.2-0.7c0-0.3-0.3-0.6-0.2-0.7c0.1-0.3-0.2-0.3-0.3-1
			c0-0.3-0.4-0.6-0.3-1c0.1-0.4-0.3-0.8-0.3-1c0-0.4-0.3-0.7-0.3-1c-0.2-0.2-0.1-0.6-0.3-1c0-0.4-0.1-0.6-0.3-1
			c-0.2-0.3-0.3-0.5-0.3-1c-0.1-0.3-0.3-0.7-0.3-1c0-0.4-0.2-0.5-0.2-0.8c-0.2-0.3-0.4-0.5-0.3-0.8c0-0.5-0.3-0.2-0.2-0.7
			c0-0.3-0.2-0.2-0.2-0.4c0-0.2-0.2-0.4-0.4-0.4c-0.3-0.1-0.3,0-0.7,0c-0.2,0-0.4,0-0.7,0c-0.3,0-0.3-0.6,0-0.7
			c0.4-0.1,0.4,0.1,0.8,0c0.3,0,0.5,0.1,0.8,0.1c0.3,0.1,0.7,0,0.9,0c0.2,0.1,0.5,0.1,0.9,0c0.3,0,0.5,0.1,0.9,0c0.2,0,0.6,0,0.9,0
			c0.3,0.1,0.6,0,0.9,0.1c0.2-0.1,0.4,0,0.7,0c0.2,0,0.4,0.7-0.1,0.6c-0.4,0-0.7-0.1-0.9,0c-0.5,0-0.7,0-0.8,0.2
			c-0.2,0.4,0.3,0.7,0.2,1.1c0,0.4,0.2,0.7,0.3,1.1c0.1,0.5,0.2,0.6,0.2,1c0.2,0.4,0.1,0.6,0.3,1c0.1,0.5,0.3,0.6,0.3,1
			c0,0.5,0.2,0.8,0.3,1c0,0.3,0.1,0.8,0.3,1c0,0.3,0.2,0.7,0.2,1c-0.1,0.4,0.3,0.6,0.3,1c0.1,0.3,0.2,0.5,0.1,0.5
			c0.1,0.4,0.2,0.6,0.4,0.6c0.2,0,0.2-0.2,0.4-0.4c0-0.2,0.1-0.5,0.2-0.6c0-0.4,0.3-0.7,0.3-1c0-0.4,0.4-0.6,0.3-0.9
			c-0.1-0.3,0.4-0.6,0.3-0.9c0-0.2,0.2-0.5,0.3-1c0-0.2,0.3-0.5,0.3-0.9c0.1-0.4,0.1-0.7,0.3-0.9c0.1,0,0-0.3,0.2-0.7
			c0.2-0.4,0.1-0.7,0.3-1.1c0.2-0.3,0.1-0.8,0.3-1c0.2-0.2,0.1-0.5,0-0.7c-0.1-0.2-0.2-0.2-0.5-0.3c-0.2-0.1-0.3,0.1-0.6,0
			c-0.2-0.1-0.4,0-0.7,0c-0.4,0-0.4-0.8,0.2-0.7c0.3,0.1,0.7,0,0.9,0.1c0.5,0,0.8,0,1.1,0c0.5-0.1,0.7,0.1,1.2,0
			c0.4,0.2,0.9-0.1,1.2,0c0.3,0,0.8,0.2,1.2,0c0.3,0.1,0.9,0,1.2,0c0.3,0.1,0.7,0.1,1.1,0c0.3-0.1,0.4,0,1.1,0c0.3,0,0.4,0.7,0,0.6
			c-0.3,0-0.7,0-1.2,0c-0.2,0-0.7,0.2-0.6,0.5c-0.1,0.4-0.1,0.9,0,1.1c-0.1,0.3,0.1,0.5,0,0.8c0,0.2,0,0.6,0,0.8
			c-0.2,0.4,0.1,0.6,0,0.8c0,0.4,0.1,0.7,0,0.8c0,0.3-0.1,0.6,0,0.8c-0.1,0.4,0.1,0.5,0,0.8c-0.3,0.4,0.1,0.5,0,0.8
			c-0.3,0.3,0,0.5,0,0.8c0,0.3-0.1,0.7,0,0.8c-0.1,0.3-0.2,0.7,0,0.8c0,0.4-0.1,0.6,0,0.8c-0.1,0.4-0.1,0.6,0,0.8
			c-0.1,0.4,0,0.8,0,1.1c0,0.1,0.3,0.5,0.6,0.5c0.3,0,0.8,0.1,1.2,0.1c0.4,0,0.4,0.7,0.1,0.6c-0.5,0-0.7,0-1-0.1
			c-0.3-0.2-0.3,0-0.6-0.1c-0.3,0-0.5-0.1-0.9,0c-0.3,0-0.5,0-0.9,0c-0.4,0.1-0.7-0.1-0.9,0c-0.2,0-0.5,0-0.9,0
			c-0.4,0.1-0.4,0-0.6,0c-0.2,0.1-0.5,0-0.9,0c-0.5,0-0.3-0.8,0-0.6c0.4,0.1,0.6,0,1.1,0.1c0.2,0,0.5,0,0.6-0.4c0-0.4,0.2-1,0.1-1.2
			c-0.2-0.4,0.2-0.4,0-0.8c-0.1-0.2,0.2-0.5,0-0.8c-0.2-0.4,0.1-0.7,0-0.8c-0.1-0.2,0-0.5,0-0.8c0-0.3,0.1-0.6,0-0.8
			c0-0.1,0.1-0.4,0-0.8l0-0.8c-0.1-0.2-0.1-0.6,0-0.8c0.1-0.4,0.1-0.6,0-0.8c-0.1-0.2,0-0.5,0-0.8c0-0.2,0.1-0.4,0-0.8
			c0-0.3,0-0.5,0-0.8c-0.1-0.3,0.1-0.9,0-1.3c0-0.3-0.1-0.3-0.3-0.3c-0.3-0.1-0.5-0.1-0.8,0c-0.3-0.1-0.5,0.2-0.7,0.3
			c-0.1,0.2-0.2,0.5-0.3,0.7c-0.2,0.2,0,0.3-0.2,0.5c-0.2,0.1,0,0.2-0.1,0.5c-0.2,0,0,0.2-0.2,0.5c-0.2,0.1-0.2,0.3-0.2,0.5
			c-0.2,0.3-0.2,0.4-0.2,0.7c0,0.1-0.2,0.5-0.2,0.6c-0.1,0.4-0.1,0.5-0.3,0.9c-0.2,0.3-0.1,0.6-0.3,0.9l-0.3,0.9
			c-0.2,0.2-0.3,0.5-0.3,0.9L101.9,174.1z"/>
	</g>
	<g>
		<path class="st0" d="M64.1,157.9c0.1-0.1,0.1-0.5,0.2-0.7c0-0.3,0.1-0.5,0.1-0.8c0-0.4-0.2-0.4-0.5-0.5c-0.3-0.1-0.5,0-1-0.1
			c-0.3,0-0.4-0.3-0.2-0.6c0.1-0.1,0.3,0,0.7,0c0.3,0,0.6,0,0.8,0c0.4-0.1,0.6,0.2,0.8,0c0.3-0.1,0.6,0.1,0.8,0c0.2,0,0.5,0,0.8,0
			c0.1,0.1,0.4,0.2,0.8,0c0.2,0,0.5,0.1,0.8,0c0.2,0,0.4,0.2,0.8,0c0.2,0.1,0.4-0.1,0.8,0c0.4,0.1,0.6,0,0.8,0c0.1,0.1,0.5,0,0.8,0
			c0.3,0.1,0.5,0.2,0.8,0c0.3-0.1,0.5,0.1,0.8,0.1c0.3-0.1,0.3,0.1,0.7,0c0.2-0.1,0.4,0.1,0.7,0c0.3-0.1,0.5-0.1,0.8-0.1
			c0.2,0,0.3,0.2,0.2,0.3c0,0.2-0.1,0.4-0.3,0.3c-0.4-0.1-0.5,0-0.8,0c-0.4,0-0.6,0.3-0.5,0.5c0,0.3-0.1,0.8,0,1
			c-0.1,0.3,0.1,0.4,0,0.8c0,0.2,0,0.6,0,0.8c0.1,0.3,0.1,0.6,0,0.8c0,0.4,0.1,0.7,0,0.9c0,0.3-0.1,0.6,0,0.8
			c-0.1,0.4,0.1,0.6,0,0.8c-0.3,0.5,0.1,0.7,0,0.8c-0.2,0.4,0,0.5,0,0.8c0,0.3-0.1,0.7,0,0.8c-0.1,0.3,0.1,0.6,0,0.8
			c-0.2,0.6,0.1,0.6,0,0.8c-0.1,0.4,0.1,0.6,0,0.8c-0.1,0.3,0.1,0.7,0,1.1c-0.1,0.3,0.2,0.6,0.4,0.6c0.3,0,0.5,0.1,0.9,0.1
			c0.4,0,0.3,0.7,0,0.7c-0.6-0.1-0.9-0.1-1.5-0.1c-0.3,0-0.7-0.1-1.1-0.1c-0.5,0-0.8-0.1-1.3-0.1c-0.6,0.1-1,0-1.5,0
			c-0.5,0.1-0.7-0.2-1.2-0.1c-0.5,0.1-1-0.1-1.4,0c-0.3,0.1-1-0.1-1.4,0c-0.5,0-0.7,0.1-1.2,0c-0.4-0.1-0.3-0.6,0.1-0.6
			c0.3,0,0.7,0.1,0.9,0.1c0.4,0,0.7-0.2,0.6-0.6c-0.1-0.2,0-0.9,0-1.1c0-0.4,0.1-0.5,0-0.8c0-0.2-0.1-0.5,0-0.8c0-0.3,0.1-0.7,0-0.8
			c-0.1-0.2,0-0.5,0-0.8c0-0.3,0.1-0.6,0-0.8c0-0.1,0.1-0.4,0-0.8l0-0.8c-0.1-0.2-0.1-0.6,0-0.8c0.1-0.4,0.1-0.6,0-0.9
			c-0.1-0.2,0-0.5,0-0.8c0-0.2,0.1-0.4,0-0.8c0-0.3,0-0.5,0-0.8c-0.1-0.5,0-0.5,0-0.8c0.1-0.2,0.1-0.4,0-0.5
			c-0.1-0.2-0.2-0.3-0.4-0.3c-0.4,0-0.3,0-0.5,0.3c0,0.3-0.3,0.5-0.3,0.9c-0.1,0.4-0.3,0.6-0.2,0.9c0.1,0.2-0.2,0.2-0.1,0.5
			c0.1,0.1-0.1,0.2-0.1,0.5c0.1,0.2-0.1,0.4-0.1,0.6c0,0.2,0,0.3-0.2,0.6c-0.2,0.3,0,0.5-0.2,0.9c0,0.3-0.1,0.6-0.2,0.9
			c0,0.2-0.2,0.6-0.3,0.9c-0.1,0.4-0.1,0.5-0.2,0.9c-0.2,0.3-0.2,0.7-0.2,0.9c-0.2,0.3,0,0.7-0.2,0.9c-0.2,0.4-0.1,0.6-0.2,0.9
			c-0.2,0.2-0.1,0.6-0.2,0.9c-0.1,0.4-0.1,0.5-0.2,0.8c-0.2,0.3,0,0.5-0.2,0.8l-0.2,0.7c-0.1,0.3,0,0.3-0.1,0.6
			c0,0.4-0.5,0.3-0.7,0.2c-0.4,0-0.7,0-1-0.1c-0.2-0.1-0.1-0.3-0.2-0.4c-0.1-0.2-0.1-0.5-0.1-0.8c0.1-0.3-0.2-0.3-0.1-0.5
			c0.1-0.2-0.1-0.3-0.1-0.7c-0.1-0.3-0.1-0.5-0.1-0.7c-0.1-0.2,0-0.5-0.2-1c-0.1-0.3,0-0.7-0.2-1c-0.2-0.4-0.3-0.8-0.2-1
			c-0.1-0.2-0.2-0.7-0.2-1c-0.2-0.2,0-0.6-0.2-1c0-0.4,0-0.6-0.2-1c-0.2-0.4-0.2-0.6-0.2-1c-0.1-0.4-0.2-0.7-0.2-1
			c0-0.3,0-0.3-0.1-0.7c-0.2-0.3,0.1-0.5-0.1-0.8c-0.2-0.1,0.1-0.6-0.2-0.8c-0.2-0.1,0-0.3-0.1-0.5c-0.2-0.1-0.3-0.2-0.5-0.2
			c-0.3,0-0.5-0.1-0.8-0.1c-0.2,0-0.2-0.2-0.2-0.4c0-0.2,0.1-0.4,0.4-0.4c0.3,0.1,0.4,0,0.6,0.1c0.3,0.1,0.4,0,0.8,0
			c0.3,0.1,0.6,0,0.7,0.1c0.1,0.2,0.5-0.1,0.7,0c0.4-0.1,0.6,0.1,0.9,0c0.3-0.1,0.4,0,0.7,0c0.2,0.1,0.4-0.1,0.7,0
			c0.3,0,0.4,0,0.7,0c0.3,0,0.2,0.7,0,0.6c-0.4,0.1-1-0.1-1.3,0c-0.3,0.1-0.4,0.2-0.3,0.6c-0.1,0.5,0.3,1.2,0.2,1.5
			c-0.1,0.2,0.2,0.6,0.2,0.8c0,0.4,0.2,0.6,0.2,1c0,0.2,0,0.7,0.2,1c0,0.4,0,0.7,0.2,1c-0.1,0.3,0.1,0.6,0.2,1c0,0.4,0.1,0.6,0.2,1
			c0.1,0.4,0.1,0.5,0.2,1c-0.1,0.2,0,0.5,0.1,0.6c0.1,0.4,0.4,0.5,0.5,0.1c0-0.3,0.2-0.3,0.2-0.5c0-0.4,0.2-0.5,0.2-0.9
			c0-0.3,0.2-0.5,0.2-0.9c0-0.4,0.3-0.6,0.2-0.9c-0.1-0.2,0.3-0.7,0.2-0.9c0-0.3,0.2-0.2,0.2-0.6c0.1-0.5,0.1-0.7,0.3-1.1
			c0.1-0.2,0-0.3,0.2-0.7c0.1-0.3,0.1-0.3,0.1-0.6L64.1,157.9z M68.7,164.4c-0.1,0.3-0.1,0.4,0,0.8c-0.1,0.3,0,0.5,0,0.8
			c0,0.3-0.1,0.7,0,0.8c0,0.2-0.1,0.5,0,0.8c-0.1,0.4,0.1,0.8,0,1.2c0.1,0.4,0.4,0.4,0.5,0.4c0.4,0,0.9,0.1,1.2,0
			c0.3-0.1,0.4-0.2,0.4-0.5c0-0.2,0.1-0.6,0.1-1.1c-0.1-0.2,0.2-0.4,0-0.8c-0.1-0.3,0.1-0.5,0-0.8c-0.2-0.3,0.1-0.6,0-0.8
			c0.1-0.2,0-0.5,0-0.8c0.1-0.3-0.2-0.5,0-0.8c0.3-0.4,0-0.5,0-0.8c0-0.4-0.1-0.6,0-0.8c0-0.3,0-0.6,0-0.8c-0.1-0.2,0-0.4,0-0.9
			c0-0.3-0.1-0.5,0-0.8c0.1-0.2,0-0.5,0-0.8c-0.1-0.4,0-0.5,0-0.8c0-0.4,0.1-1,0-1.3c-0.1-0.2-0.1-0.3-0.4-0.4c-0.3,0-0.7-0.1-1.1,0
			c-0.4,0-0.5,0.2-0.6,0.5c0,0.4-0.1,0.7-0.1,1.1c0.1,0.1-0.1,0.7,0,0.8c0,0.3,0,0.6,0,0.8c0,0.4-0.1,0.5,0,0.8
			c-0.1,0.2-0.1,0.5,0,0.9c0,0.2-0.1,0.6,0,0.8c0,0.4,0.1,0.6,0,0.8c0,0.3,0,0.6,0,0.8L68.7,164.4z"/>
	</g>
	<g>
		<path class="st0" d="M35.8,130c0-0.2-0.4-0.3-0.6-0.3c-0.3,0-0.3,0-0.6,0c-0.3,0-0.4-0.7,0-0.7c0.4,0,0.7,0.1,1,0.1
			c0.3,0.1,0.4,0,0.6,0c0.4,0,0.5,0.3,0.9,0c0.4,0,0.5,0,0.9,0c0.2,0.1,0.5,0.1,0.9,0c0.3,0.1,0.7,0.1,0.9,0c0.2,0.1,0.5,0,0.9,0
			c0.3-0.1,0.6,0,0.9,0c0.2,0.1,0.5,0,0.9,0c0.2,0.1,0.6,0.1,0.9,0c0.2,0.1,0.5,0.1,0.9,0c0.2,0.1,0.5,0.1,0.9,0
			c0.3,0,0.4,0.1,0.9,0c0.2,0.1,0.5,0,0.9,0c0.3-0.1,0.4,0,0.7,0c0.4,0,0.4-0.1,0.8,0c0.1,0,0.3,0.1,0.2,0.3c0,0.2-0.1,0.3-0.3,0.3
			c-0.4,0-0.7-0.1-0.8,0.1c-0.2,0.1-0.3,0.3-0.3,0.5c0,0.3-0.1,0.8,0,1c0.1,0.3-0.1,0.6,0,0.8c-0.1,0.4,0,0.5,0,0.8
			c0.1,0.2-0.1,0.7,0,0.9c0,0.3-0.1,0.5,0,0.8c0,0.3,0,0.7,0,0.8c0.1,0.4,0,0.7,0,0.8c0,0.2-0.1,0.7,0,0.8c-0.1,0.2,0.1,0.5,0,0.8
			c0.1,0.3-0.3,0.4,0,0.8c0,0.3,0,0.7,0,0.8c0.1,0.4,0,0.6,0,0.8c0,0.3-0.1,0.6,0,0.8c-0.1,0.3,0,0.8,0,1.1
			c-0.1,0.2,0.1,0.5,0.3,0.6c0.4,0,0.7-0.1,0.9,0.1c0.1,0.1,0.1,0.2,0.1,0.3c0,0.2-0.1,0.3-0.2,0.3c-0.4,0-0.6,0-0.9,0
			c-0.2,0-0.4,0-0.6-0.1c-0.3,0-0.6,0.1-0.7,0c-0.3-0.2-0.6-0.1-0.8-0.1c-0.6,0.1-1.1,0-1.6-0.1c-0.1,0-0.6-0.1-0.8,0
			c-0.4,0-0.5,0-0.8,0c-0.4,0.1-1.2,0-1.6-0.1c-0.4,0.1-0.5-0.1-0.8,0c-0.4,0.1-0.4-0.1-0.8,0c-0.4,0-0.7,0-0.8,0.1
			c-0.2,0-0.3-0.1-0.7-0.1c-0.2,0.1-0.5,0-0.7,0c-0.2,0-0.4,0-0.8,0c-0.5-0.1-0.3-0.7,0.1-0.6c0.3,0,0.4,0,0.7,0
			c0.3,0,0.4-0.2,0.5-0.5c-0.1-0.2,0-0.9,0-1.1c0.1-0.3,0-0.6,0-0.8c0.1-0.2,0.1-0.5,0-0.8c0.1-0.3,0.1-0.5,0-0.8
			c-0.1-0.2,0.1-0.6,0-0.8c0.1-0.2,0.1-0.5,0-0.8c0-0.2,0-0.7,0-0.8c-0.1-0.4,0-0.6,0-0.8c0-0.4-0.1-0.4,0-0.8c0-0.1,0-0.5,0-0.8
			c-0.1-0.2,0.1-0.5,0-0.9c-0.1-0.2-0.1-0.6,0-0.8c0-0.2,0-0.6,0-0.8c-0.1-0.5,0-0.9,0-1.3c0.1-0.2-0.1-0.4-0.3-0.3
			c-0.2,0.1-0.2,0.2-0.3,0.5c0,0.1-0.3,0.2-0.2,0.5c0,0.3-0.1,0.6-0.2,0.8c0,0.2,0,0.6-0.2,0.8c-0.2,0.4-0.2,0.5-0.2,0.7
			c0,0.2-0.3,0.6-0.2,0.8c-0.2,0.2,0,0.6-0.2,0.9c0,0.3-0.2,0.7-0.2,0.9c-0.1,0.3-0.1,0.7-0.2,0.9c0.1,0.4-0.2,0.6-0.2,0.9
			c0.1,0.3,0,0.6-0.2,0.9c0,0.3,0,0.5-0.2,0.9c-0.1,0.4-0.1,0.7-0.2,0.9c0,0.2-0.3,0.6-0.2,0.9c0,0.2-0.2,0.5-0.2,0.8
			c0,0.4-0.3,0.8-0.3,1.1c0,0.4-0.1,0.6-0.1,0.8c0,0.5-0.4,0.3-0.7,0.4c-0.4,0-0.5-0.1-0.9-0.1c-0.3,0-0.4-0.2-0.3-0.8
			c-0.1-0.2-0.1-0.4-0.1-0.8c0.1-0.2-0.2-0.4-0.1-0.8c0.1-0.1-0.2-0.5-0.1-0.8c0-0.4-0.3-0.6-0.2-1.1c0.1-0.4-0.2-0.7-0.2-1.1
			c-0.2-0.3-0.2-0.8-0.2-1.1c-0.1-0.3-0.1-0.6-0.2-1.1c0.1-0.4-0.2-0.8-0.2-1.1c-0.2-0.3-0.2-1-0.2-1.4c0.2-0.5-0.2-0.4-0.1-0.8
			c-0.1-0.4-0.1-0.6-0.2-1.1c0-0.2-0.2-0.3-0.1-0.6c-0.2-0.3-0.1-0.8-0.2-1.2c0-0.2-0.1-0.7-0.3-0.6c-0.1-0.1-0.4,0-0.5-0.1
			c-0.2,0.1-0.3-0.7,0.1-0.7c0.4,0,0.5,0.2,0.9,0.1c0.3-0.1,0.7,0.1,1.1,0c0.5,0.1,0.7,0.1,1.1,0.1c0.5,0,0.7,0,1.1,0
			c0.3,0,0.2,0.5,0,0.6c-0.2,0.1-0.5,0-0.7,0.1c-0.1,0-0.3,0.3-0.2,0.7c-0.1,0.4,0.2,0.6,0.1,0.9c-0.1,0.3,0,0.5,0.1,0.6
			c0.1,0.4,0.1,0.6,0.1,1c-0.1,0.3,0.2,0.7,0.1,1c0,0.3,0.2,0.8,0.2,1c0.1,0.3,0,0.8,0.1,1c0.1,0.5,0,0.7,0.1,1c0,0.3,0.1,0.6,0.1,1
			c-0.1,0.3,0.1,0.4,0.1,0.8c0.1,0.4,0.4,0.6,0.5-0.1c0.2-0.2,0-0.5,0.2-0.6c0.1-0.3,0-0.4,0.1-0.6c0.2-0.3,0-0.7,0.2-0.9
			c0.2-0.3,0.3-0.6,0.2-0.9c0-0.4,0.1-0.5,0.2-0.9c0.1-0.3,0-0.5,0.2-0.9c0-0.2,0-0.5,0.2-0.9c0-0.2,0.1-0.4,0.2-0.9
			c0-0.3,0.2-0.4,0.1-0.7c-0.1-0.2,0.2-0.3,0.1-0.4c0-0.3,0.2-0.2,0.1-0.6c-0.1-0.2,0-0.3,0-0.5L35.8,130z M40.5,142.9
			c0-0.2-0.1-0.8,0-1.3c0.2-0.3-0.1-0.6,0-0.8c0.1-0.4-0.1-0.5,0-0.8c0.2-0.5,0-0.6,0-0.8c-0.1-0.3,0-0.7,0-0.8
			c-0.1-0.3,0.1-0.4,0-0.8c0.1-0.2,0.1-0.5,0-0.8c0-0.2,0-0.5,0-0.8c0-0.2-0.1-0.6,0-0.8c-0.1-0.4-0.1-0.5,0-0.8
			c0-0.4,0.1-0.5,0-0.9c-0.1-0.1,0.1-0.6,0-0.8c-0.1-0.3-0.1-0.5,0-0.8c0-0.4,0.1-1,0-1.3c-0.1-0.3-0.1-0.4-0.3-0.4
			c-0.2,0-0.5,0.1-0.7,0c-0.2,0.1-0.2,0.1-0.3,0.4c0,0.4-0.1,0.9,0,1.3c0,0.3,0,0.5,0,0.8c-0.2,0.4,0,0.4,0,0.8
			c-0.1,0.2,0,0.5,0,0.9c-0.1,0.4,0.1,0.4,0,0.8c0.1,0.2,0,0.7,0,0.8c-0.1,0.3,0,0.6,0,0.8c0.1,0.2-0.1,0.7,0,0.8
			c0.1,0.2,0.1,0.5,0,0.8c0,0.3,0,0.5,0,0.8c0,0.3-0.1,0.7,0,0.8c-0.1,0.2,0,0.5,0,0.8c0,0.3,0.1,0.4,0,0.8c-0.1,0.4,0.1,0.8,0,1.3
			c0.1,0.3,0.2,0.3,0.3,0.4c0.3,0,0.5,0,0.7,0C40.5,143.3,40.6,143.1,40.5,142.9z M44.5,132.5c0.1-0.1,0.1-0.6,0-0.8
			c0-0.3,0.1-0.8,0-1.3c0-0.3-0.1-0.5-0.3-0.4c-0.2,0-0.4,0.1-0.6,0.1c-0.3,0-0.2,0.3-0.3,0.3c-0.1,0.4,0,0.8,0,1.3
			c0,0.4-0.2,0.6,0,0.8c0.1,0.3-0.1,0.6,0,0.8c0.1,0.2-0.1,0.6,0,0.9c-0.1,0.4,0.1,0.7,0,0.8c0,0.3-0.2,0.5,0,0.8
			c-0.1,0.3,0,0.6,0,0.8c0.1,0.2,0,0.7,0,0.8c-0.1,0.3-0.1,0.6,0,0.8c-0.1,0.4,0,0.6,0,0.8c0,0.2,0.1,0.5,0,0.8c0,0.2,0,0.5,0,0.8
			c-0.2,0.3,0,0.4,0,0.6c0,0.5,0.1,1.1-0.1,1.5c0,0.2,0.1,0.4,0.3,0.4c0.3,0,0.5,0,0.7,0c0.2-0.1,0.1-0.4,0.2-0.6
			c0-0.3,0-0.8,0.1-1.1c0.1-0.1,0.1-0.5,0-0.8c0-0.2,0.1-0.5,0-0.8c0-0.3,0.1-0.7,0-0.8c0-0.3,0.1-0.6,0-0.8c0.1-0.4,0-0.5,0-0.8
			c-0.1-0.2,0.1-0.7,0-0.8c0.1-0.3-0.1-0.4,0-0.8c-0.1-0.2,0.1-0.6,0-0.8c0-0.4,0.1-0.5,0-0.8c0.1-0.2,0-0.5,0-0.9
			C44.5,133.2,44.5,132.8,44.5,132.5z"/>
	</g>
	<g>
		<path class="st0" d="M38.1,107.1c-0.4,0-0.4-0.1-0.7-0.1c-0.4,0-0.3,0-0.7,0c-0.4,0-0.7,0.1-0.8,0c-0.4,0-0.6-0.1-0.8,0
			c-0.3,0.1-0.5-0.1-0.8,0c-0.3,0.1-0.6,0.1-0.7,0c-0.2,0-0.3,0-0.5,0c-0.4,0-0.7,0-1.1,0c-0.4,0-0.3-0.6,0-0.6c0.3,0,0.5,0,0.8,0
			c0.4-0.1,0.5-0.1,0.5-0.4c0-0.2-0.3-0.8-0.4-1c-0.3-0.3-0.1-0.6-0.4-0.7c-0.2-0.2-0.1-0.5-0.3-0.7c-0.2-0.1-0.2-0.3-0.3-0.7
			c-0.2-0.3-0.3-0.4-0.4-0.7c-0.2-0.1-0.1-0.5-0.4-0.7c-0.1-0.3-0.5-0.3-0.8,0c-0.2,0.3-0.3,0.5-0.5,0.7c-0.1,0.3-0.4,0.4-0.5,0.7
			c-0.2,0.4-0.4,0.3-0.5,0.7c0,0.3-0.2,0.1-0.3,0.4c-0.3,0.1-0.1,0.3-0.3,0.4c-0.2,0.3-0.4,0.5-0.4,0.6c-0.4,0.4-0.5,0.7-0.4,0.9
			c0.1,0.2,0.2,0.3,0.3,0.2c0.3,0,0.3,0.1,0.6,0c0.2-0.1,0.4,0,0.6,0c0.2,0.1,0.2,0.6,0,0.6c-0.5,0.1-0.7-0.1-1.2,0
			c-0.5,0-0.8-0.1-1.1-0.1c-0.5-0.1-0.7,0-1.2,0c-0.3,0-0.9-0.1-1.2,0c-0.4,0-0.8-0.1-1.2,0c-0.5,0-0.8,0.1-1.2,0
			c-0.4,0-0.7,0.1-1.1,0c-0.4,0-0.8,0-1.1,0c-0.4,0-0.3-0.7,0-0.7c0.3,0,0.7,0.1,1.1,0c0.5,0,0.6-0.1,0.7-0.4
			c-0.1-0.6,0.2-0.6,0.1-1c-0.1-0.6,0.1-0.7,0-1c-0.2-0.3,0-0.6,0-1.1c0-0.3,0.3-0.2,0-0.6c-0.1-0.2,0-0.5,0-0.8
			c0.1-0.2-0.1-0.4,0-0.8c-0.1-0.3,0-0.6,0-0.8c0-0.3-0.1-0.4,0-0.8c-0.1-0.3,0.2-0.4,0-0.8c-0.2-0.4,0.2-0.5,0-0.8
			c-0.1-0.4,0.2-0.4,0-0.9c-0.1-0.2,0-0.6,0-0.8c0.2-0.4-0.1-0.4,0-0.8c0-0.4-0.1-0.7,0-1.1c0-0.3-0.2-0.5-0.6-0.5
			c-0.3,0-0.6-0.1-1.1-0.1c-0.5,0-0.4-0.7,0-0.7c0.3,0,0.6,0,0.7,0c0.3,0,0.3,0.1,0.6,0c0.3,0,0.5,0.1,0.6,0c0.4,0.1,0.5,0.1,0.7,0
			c0.6-0.1,0.9,0.1,1.5,0.1c0.5,0.2,1,0,1.5,0.1c0.4,0,1,0.2,1.5,0.1c0.4,0.1,1.1,0.2,1.5,0.1c0.3-0.1,0.3,0.2,0.7,0
			c0.3,0,0.4,0.1,0.6,0c0.2-0.1,0.4,0.1,0.7-0.1c0.2,0,0.4,0,0.8,0.1c0.4,0,0.3,0.7,0,0.6c-0.5,0.1-0.7,0-0.9,0
			c-0.4,0-0.4,0.3-0.4,0.5c0,0.2,0.2,0.4,0.3,0.6c0,0.2,0.2,0.4,0.3,0.6c0,0.3,0.3,0.3,0.3,0.6c0,0.4,0.3,0.3,0.3,0.6
			c0,0.3,0.3,0.4,0.3,0.6c0,0.4,0.1,0.4,0.3,0.7c0.2,0.3,0.6,0.3,0.7-0.1c0.2-0.3,0.6-0.7,0.9-1.2c0.3-0.4,0.3-0.7,0.7-0.9
			c0.2-0.3,0.5-0.6,0.7-0.9c0.2-0.3,0.4-0.4,0.4-0.7c0-0.2-0.2-0.4-0.4-0.3c-0.1,0-0.3,0.1-0.5,0c-0.3-0.1-0.4,0-0.7,0
			c-0.3,0-0.3-0.7,0.1-0.7c0.3,0,0.4,0,0.7,0.1c0.4,0,1.2,0.1,1.7,0.1c0.2,0.2,0.3,0,0.7,0c0.3,0.1,0.5,0.1,0.9,0
			c0.4,0,0.5,0.7,0.1,0.6c-0.3,0-0.4,0.1-0.8,0c-0.6,0.1-0.6,0.2-0.9,0.4c-0.3,0.2-0.4,0.6-0.7,0.8c-0.3,0.2-0.5,0.9-0.7,1
			c-0.4,0.3-0.4,0.7-0.7,0.9c-0.3,0.1-0.3,0.4-0.4,0.6c-0.1,0.1-0.5,0.5-0.6,0.8c-0.1,0.4-0.5,0.5-0.6,0.9c0.1,0.4,0.3,0.7,0.5,1
			c0.2,0.4,0.3,0.6,0.5,1c0.1,0.5,0.5,0.8,0.5,1c0.1,0.3,0.6,0.9,0.6,1.3c0,0.4,0.4,0.4,0.4,0.9c0.1,0.6,0.5,0.5,0.5,0.9
			c0.1,0.4,0.4,0.7,0.5,0.9c0.1,0.4,0.4,0.7,0.6,0.9c0.3,0.1,0.6,0.2,0.8,0.1c0.2,0,0.3,0,0.5,0C38.4,106.5,38.3,107.1,38.1,107.1z
			 M28.3,103c0.1-0.3,0.3,0,0.4-0.5c0-0.3,0.2-0.3,0.3-0.5c0.2-0.4,0.3-0.6,0.7-0.9c0.2-0.3,0.5-0.6,0.5-1c0.1-0.4-0.1-0.6-0.3-0.9
			c-0.2-0.3-0.5-0.9-0.6-1.2c0-0.4-0.2-0.3-0.3-0.7c-0.1-0.3-0.4-0.5-0.5-0.9c0-0.3-0.4-0.6-0.5-1c-0.1-0.2-0.3-0.4-0.5-0.9
			c0.1-0.5-0.3-0.3-0.3-0.6c-0.1-0.3-0.4-0.5-0.6-0.9c-0.1-0.4-1-0.3-1.3-0.3c-0.3,0.1-0.5,0.2-0.6,0.6c-0.1,0.3,0.2,0.7,0,1
			c-0.2,0.3,0.2,0.7-0.1,1c-0.3,0.4,0,0.4,0,0.6c-0.1,0.2,0,0.6,0,0.9c0,0.4,0.1,0.7,0,0.8l0,0.8c-0.1,0.4-0.1,0.5,0,0.8
			c0.1,0.2-0.2,0.4,0,0.8c0.1,0.3-0.2,0.4,0,0.8c0.1,0.4-0.4,0.5,0,0.8c0,0.3,0,0.6,0,0.8c-0.1,0.3,0.1,0.5,0,0.8c0,0.2,0,0.6,0,0.8
			c0,0.4,0.1,0.5,0,1c-0.1,0.4,0.1,0.6,0.4,0.6c0.2,0,0.5,0,0.7,0.1c0.3,0,0.7-0.1,0.9-0.4c0.3-0.2,0.4-0.5,0.7-0.8
			c0.3-0.4,0.4-0.4,0.7-0.9L28.3,103z"/>
	</g>
	<g>
		<path class="st0" d="M36.7,58.7c0.1,0.3,0.1,0.4,0.3,0.6c-0.1,0.4,0.1,0.3,0.3,0.6c0.1,0.2,0.1,0.5,0.3,0.6
			c0.2,0.1,0.1,0.4,0.3,0.6c0.1,0.2,0.1,0.5,0.3,0.7c0.2,0.1,0.5,0.3,0.7,0c0.2-0.2,0.7-0.6,0.8-1c0.2-0.3,0.5-0.6,0.6-0.8
			c0.1-0.3,0.3-0.6,0.6-0.8c0.3-0.3,0.4-0.5,0.5-0.8c0.2-0.2,0.3-0.4,0.3-0.5c0-0.3-0.2-0.4-0.3-0.4c-0.3,0.2-0.5,0-0.6,0
			c-0.2,0-0.4,0-0.6,0c-0.4-0.1-0.3-0.7,0.1-0.7c0.4,0.1,0.5,0,0.9,0.1c0.3,0.1,0.7-0.1,1.1,0.1c0.5,0.1,0.7,0,1.1,0
			c0.5,0.1,0.6-0.1,1,0c0.2,0,0.2,0.7-0.1,0.6c-0.3,0-0.6,0.1-0.8,0c-0.4,0-0.6,0.2-1,0.4c-0.2,0.2-0.4,0.4-0.6,0.7
			c-0.3,0.3-0.3,0.4-0.5,0.7c-0.3,0.3-0.4,0.7-0.7,0.9c-0.3,0.3-0.5,0.7-0.6,0.9c-0.1,0.1-0.3,0.5-0.6,0.8c-0.3,0.4-0.5,0.5-0.5,1
			c0,0.5,0.4,1,0.6,1.3c-0.1,0.4,0.2,0.3,0.3,0.6c0.2,0.3,0.1,0.7,0.4,0.9c0.4,0.3,0.2,0.7,0.6,1c0.3,0.3,0.2,0.6,0.6,1.1
			c0.1,0.3,0.5,0.7,0.5,1c0.1,0.3,0.4,0.8,0.5,1c0.3,0.3,0.3,0.7,0.6,0.9c0.2,0.1,0.5,0.2,0.8,0.1c0.2,0,0.5,0,0.7,0.1
			c0.2,0,0.2,0.6-0.1,0.6c-0.2,0-0.4,0-0.7,0c-0.2,0-0.4-0.1-0.7,0c-0.3,0-0.5,0-0.8,0c-0.2-0.1-0.7,0-0.8,0c-0.3-0.2-0.7,0-0.9,0
			c-0.2,0-0.6-0.1-0.8,0c-0.2,0.1-0.4-0.1-0.6,0c-0.4,0-0.6-0.1-0.8,0c-0.4,0.1-0.4-0.7,0-0.6c0.4,0.1,0.6,0,0.9,0
			c0.3,0,0.4-0.2,0.3-0.5c0-0.2-0.3-0.5-0.4-0.8c-0.2-0.3-0.1-0.4-0.3-0.7c0-0.2-0.3-0.4-0.3-0.7c-0.2-0.2-0.2-0.3-0.4-0.7
			c0-0.4-0.3-0.5-0.3-0.7c-0.1-0.2-0.2-0.5-0.4-0.7c-0.2-0.1-0.7-0.3-0.9,0.2c-0.2,0.2-0.3,0.7-0.6,0.9c-0.3,0.2-0.5,0.7-0.6,0.9
			c-0.2,0.3-0.4,0.3-0.4,0.6c0,0.2-0.4,0.1-0.4,0.5c0,0.2-0.2,0.2-0.4,0.6c-0.3,0.2-0.4,0.5-0.3,0.7c0.1,0.2,0.2,0.2,0.5,0.2
			c0.4,0,0.4,0,1,0.1c0.2,0,0.2,0.6,0,0.6c-0.4,0-0.7-0.1-1,0c-0.4-0.1-0.7,0-1.2,0c-0.4,0-0.6-0.1-1,0c-0.5,0-0.6,0-1.1-0.1
			c-0.5,0-0.3-0.6,0-0.6c0.4,0,0.5,0.1,1,0.1c0.3,0,0.7,0,0.9-0.3c0.1-0.4,0.5-0.6,0.7-0.9c0.2-0.3,0.3-0.7,0.7-0.9
			c0.2-0.1,0-0.3,0.3-0.5c0.3-0.1,0-0.3,0.3-0.5c0.2-0.2,0.1-0.4,0.3-0.5c0.2,0,0.2-0.3,0.3-0.5c0.2-0.2,0.3-0.2,0.3-0.5
			c0-0.2,0.2-0.2,0.3-0.5c0.1-0.2,0.6-0.7,0.5-1.1c0-0.3-0.2-0.5-0.3-0.8c0-0.3-0.5-0.7-0.5-0.9c-0.3-0.4-0.5-0.7-0.6-1.1
			c0.1-0.4-0.3-0.3-0.4-0.8c-0.1-0.3-0.3-0.7-0.5-1c0-0.2-0.4-0.6-0.5-0.9c-0.2-0.1-0.4-0.5-0.4-0.8c0-0.4-0.3-0.3-0.4-0.7
			c0-0.2-0.2-0.3-0.3-0.4c-0.3-0.1-0.8,0-1.2-0.1c-0.4,0-0.4-0.7,0-0.7c0.1,0,0.3,0,0.7,0.1c0.2,0,0.4,0.1,0.7,0
			c0.4,0,0.4,0.1,0.8,0c0.3-0.1,0.4,0.2,0.7,0c0.2,0,0.5,0,1,0c0.3,0,0.6,0.1,0.8,0c0.3,0,0.6,0.1,0.8,0c0.2-0.1,0.3,0,0.6,0
			c0.3,0,0.2,0.7,0,0.6c-0.3,0-0.6,0-0.9-0.1c-0.4-0.1-0.5,0.2-0.3,0.6L36.7,58.7z"/>
	</g>
	<g>
		<path class="st0" d="M62.3,45.8c-0.2-0.1-0.5-0.1-0.8,0c-0.4,0.1-0.6-0.8,0-0.7c0.3,0,0.5,0.1,0.8,0c0.4,0.2,0.4-0.2,0.3-0.6
			c-0.2-0.1-0.2-0.5-0.3-0.6c0-0.1-0.3-0.5-0.3-0.7c-0.2-0.1-0.2-0.5-0.3-0.7c-0.2-0.2-0.3-0.4-0.4-0.7c0-0.3-0.4-0.4-0.3-0.7
			c-0.2-0.2-0.3-0.4-0.4-0.7c-0.2-0.2-0.6-0.4-0.8,0c0,0.3-0.4,0.4-0.5,0.7c-0.2,0.3-0.3,0.6-0.5,0.7c-0.2,0.2-0.4,0.6-0.5,0.7
			c0,0.2-0.2,0.3-0.3,0.4c-0.3,0-0.3,0.2-0.3,0.4c-0.1,0.2-0.2,0.3-0.5,0.6c-0.3,0.3-0.4,0.4-0.4,0.7c-0.2,0.3,0,0.5,0.4,0.3
			c0.3,0.1,0.4,0,0.6,0c0.2,0,0.4-0.2,0.6,0c0.2,0.2,0.2,0.7-0.1,0.7c-0.4,0-0.7-0.1-1.1-0.1c-0.5,0-0.6,0.1-1.1,0
			c-0.4-0.1-0.7,0.1-1,0c-0.3,0-0.7,0.2-1.1,0c-0.6-0.1-0.3-0.8,0.1-0.7c0.3,0.1,0.6,0.1,0.8,0.1c0.4-0.1,0.6-0.2,0.9-0.4
			c0.3-0.3,0.3-0.5,0.7-0.8c0.2-0.3,0.3-0.6,0.6-0.8c0.2-0.1,0.2-0.3,0.4-0.6c0.2-0.1,0.2-0.3,0.3-0.5c-0.1-0.3,0.3-0.2,0.4-0.5
			c0-0.1,0.1-0.4,0.3-0.5c0.2-0.3,0.5-0.5,0.7-0.9c0.1-0.1,0.2-0.4,0.4-0.5c0.2-0.1,0.2-0.3,0.2-0.6c0-0.4-0.1-0.4-0.3-0.8
			c-0.1-0.3-0.3-0.6-0.5-0.9c-0.2-0.4-0.4-0.5-0.5-0.9c-0.1-0.2-0.4-0.6-0.5-1c0-0.3-0.5-0.7-0.5-0.9c-0.3-0.4-0.4-0.5-0.5-0.9
			c-0.2-0.2-0.3-0.4-0.4-0.8c0-0.2-0.2-0.7-0.4-0.8c-0.2-0.2-0.3-0.2-0.4-0.2c-0.3,0-0.5,0-1,0c-0.7-0.1-0.4-0.9-0.1-0.8
			c0.3,0.1,0.3,0,0.7,0.1c0.3,0,0.4,0,0.8,0c0.4-0.1,0.4,0.1,0.8,0.1c0.3-0.1,0.5-0.1,0.8,0c0.2,0.1,0.5-0.1,0.8,0
			c0.4,0,0.5-0.1,0.8,0c0.2,0,0.4,0,0.7-0.1c0.2,0.1,0.3-0.1,0.7,0c0.4,0,0.3,0.7,0,0.7c-0.2,0-0.5,0-0.7,0c-0.6,0-0.5,0.2-0.4,0.6
			c0.1,0.3,0.2,0.4,0.2,0.5c0.2,0.3-0.1,0.4,0.3,0.6c0,0.2,0.1,0.3,0.3,0.6c0.2,0.2,0.1,0.6,0.3,0.6c0.2,0.3,0.1,0.4,0.3,0.6
			c0.1,0.2,0.2,0.4,0.3,0.6c0.1,0.2,0.5,0.2,0.7-0.1c0.1-0.3,0.7-0.9,0.9-1.2c0.1-0.3,0.4-0.5,0.7-0.9c0.4-0.4,0.3-0.6,0.7-0.9
			c0.1-0.6,0.3-0.5,0.4-0.7c0.1-0.1,0-0.2-0.1-0.3C64.5,32,64.3,31.9,64,32c-0.4,0-0.6,0.1-0.8-0.1c-0.1-0.1-0.3-0.6,0.3-0.6
			c0.4,0,0.5,0.1,1,0c0.5,0.1,0.7,0,1.2,0.2c0.3,0,0.8-0.1,1.3,0c0.5,0,1,0,1.3,0c0.4-0.1,0.9,0.1,1.3,0c0.4,0,0.8,0.1,1.3,0
			c0.6,0,0.9,0.1,1.4,0c0.5,0.1,0.4-0.1,1,0c0.4,0,0.4,0.8-0.1,0.7c-0.6-0.1-0.8,0-1.2,0c-0.2,0-0.7,0.2-0.6,0.5
			c0.1,0.3,0,0.8,0,1.1c0,0.4,0.1,0.6,0,0.8c0.1,0.3,0,0.7,0,0.8c0.1,0.4-0.1,0.6,0,0.8c-0.1,0.4-0.1,0.7,0,0.8c0,0.3,0.1,0.6,0,0.8
			c-0.1,0.4-0.1,0.6,0,0.8c0,0.2,0,0.6,0,0.8c-0.1,0.4-0.1,0.6,0,0.9c-0.2,0.4,0,0.7-0.1,0.9c0,0.4-0.4,0.4,0,0.8
			c0.1,0.4-0.1,0.7,0,0.8c0,0.3-0.2,0.6,0,0.8c0,0.4-0.1,0.6,0,1.1c0,0.2,0.2,0.4,0.6,0.5c0.4,0,0.6,0,1.1,0.1
			c0.5,0.1,0.4,0.8,0,0.7c-0.2,0-0.4-0.2-0.6-0.1c-0.2,0-0.5-0.1-0.7-0.1c-0.1,0-0.4,0.2-0.8,0c-0.4-0.3-0.6,0-0.9-0.1
			c-0.4,0-0.7,0-1.3,0c-0.6,0-1.1,0-1.5-0.1c-0.4-0.1-1.1,0-1.5-0.1c-0.5-0.1-1.1,0-1.5-0.1c-0.3,0.1-0.3-0.3-0.5-0.1
			c-0.1,0.1-0.6,0-0.9,0L62.3,45.8z M68.4,34.5c0.1-0.4,0.1-0.7,0-0.8c-0.1-0.3,0.1-1,0-1.2C68.3,32.2,68.2,32,68,32
			c-0.3,0-0.8-0.1-1.3,0c-0.5,0-0.5,0.1-1,0.3c-0.1,0.3-0.5,0.4-0.6,0.7c-0.1,0.3-0.4,0.4-0.5,0.8c-0.1,0.3-0.5,0.7-0.6,0.9
			c-0.1,0.2-0.6,0.5-0.6,0.9c-0.3,0.2-0.4,0.6-0.6,0.9c-0.3,0.4-0.4,0.6-0.6,0.9c0,0.5,0.3,0.7,0.5,1c0.2,0.3,0.3,0.7,0.5,1
			c0.3,0.3,0.2,0.7,0.5,1c0,0.2,0.5,0.7,0.5,1c0.3,0.4,0.2,0.8,0.5,1c0.1,0.3,0.4,0.8,0.5,1c0.3,0.4,0.2,0.6,0.5,1
			c0.3,0.3,0.4,0.6,0.6,0.7c0.2,0.1,0.5,0.2,0.9,0.2c0.3,0,0.6,0,0.7-0.3c0-0.5,0.3-0.5,0.1-1c0-0.3,0-0.6,0-0.8
			c0.3-0.5,0-0.7,0.1-1.1c0-0.3,0-0.6,0-0.8c0-0.3,0-0.4,0-0.8c0.1-0.2-0.1-0.4,0-0.9c0.1-0.4-0.1-0.4,0-0.8c0.1-0.4-0.1-0.5,0-0.8
			c0.4-0.5-0.1-0.5,0-0.8c0-0.3,0-0.4,0-0.8c0.1-0.1,0.1-0.6,0-0.8C68.4,35.2,68.3,34.8,68.4,34.5z"/>
	</g>
	<g>
		<path class="st0" d="M94.1,29.7c0.1-0.3,0.5-0.7,0.6-1c0-0.3-0.3-0.7-0.3-1c-0.1-0.2-0.1-0.7-0.4-1c-0.2-0.2-0.2-0.5-0.3-1
			c-0.2-0.4-0.3-0.5-0.3-1c-0.2-0.4-0.2-0.7-0.4-1c-0.3-0.2-0.1-0.7-0.3-1c-0.2-0.2-0.3-0.4-0.3-0.8c-0.2-0.4-0.3-0.4-0.3-0.8
			c-0.2-0.2-0.3-0.5-0.4-0.3c-0.2,0.1-0.4-0.1-0.7,0c-0.1,0-0.4-0.1-0.4-0.3c0.1-0.3,0-0.6,0.4-0.5c0.5,0.1,0.5,0,1.1,0.1
			c0.5,0.1,0.7,0,1.3,0.1c0.4,0.1,1,0,1.4,0c0.5,0.1,0.9,0.1,1.2,0.1c0.4,0,0.4,0.6,0.1,0.7c-0.2,0-0.5,0-0.7,0
			c-0.3,0.1-0.4,0.3-0.1,0.9c0.2,0.2,0.4,1,0.4,1.3c0.2,0.3,0.3,0.7,0.3,0.9c0.2,0.4,0.2,0.6,0.3,0.8c0.2,0.3,0.5,0.2,0.6-0.2
			c0.1-0.2,0.4-0.6,0.5-1c0.3-0.2,0.2-0.5,0.5-0.9c0.2-0.4,0.3-0.5,0.5-0.8c0.1-0.2,0.3-0.4,0.2-0.6c0-0.2-0.3-0.3-0.4-0.3
			c-0.3,0-0.4,0.1-0.7,0c-0.3-0.1-0.3-0.5-0.1-0.7c0.3-0.2,0.3,0,0.7,0c0.2,0.1,0.4,0.1,0.7,0c0.2,0.1,0.5,0,0.8,0
			c0.1,0.1,0.4,0.2,0.8,0c0.2,0,0.6,0,0.8,0c0.2,0,0.7,0,0.8,0c0.2,0.1,0.4-0.1,0.8,0c0.4,0.1,0.6,0,0.8,0c0.2,0.1,0.5,0,0.8,0
			c0.3,0.1,0.6,0.2,0.8,0c0.1,0,0.7,0,0.8,0c0.4,0,0.6,0,0.8,0c0.3-0.1,0.5,0.1,0.8,0c0.3,0.1,0.6-0.1,0.8,0c0.1,0,0.3,0.2,0.7,0
			c0.2,0,0.6,0,0.7,0c0.3,0,0.3,0.2,0.3,0.5c0,0.2-0.1,0.3-0.3,0.3c-0.2,0-0.6-0.1-0.9,0c-0.1,0-0.4,0.1-0.4,0.4c0,0.3-0.1,0.8,0,1
			c0,0.4,0.1,0.7,0,0.8c-0.3,0.3,0.1,0.5,0,0.8c-0.1,0.3,0.1,0.5,0,0.9c0,0.2,0,0.6,0,0.8c0.1,0.3,0.1,0.6,0,0.8
			c0,0.4,0.1,0.7,0,0.8c0,0.3-0.1,0.6,0,0.8c-0.1,0.4,0,0.6,0,0.8c0.1,0.3-0.1,0.7,0,0.8c-0.1,0.3,0,0.5,0,0.8c0,0.3-0.2,0.6,0,0.8
			c0.1,0.3,0,0.6,0,0.9c-0.1,0.3,0.1,0.6,0,0.9c0,0.4,0.1,0.5,0.4,0.6c0.4,0,0.3,0.2,0.7,0c0.2-0.1,0.3,0.2,0.3,0.4
			c0,0.2,0,0.4-0.2,0.4c-0.3,0.1-0.5,0-0.7,0c-0.3,0-0.7-0.1-1-0.1c-0.4,0.1-0.6,0.1-0.9,0c-0.3,0-0.7,0.1-0.9,0
			c-0.2,0.1-0.7,0-0.9,0c-0.4-0.1-0.6,0-0.9,0c-0.3-0.1-0.5,0-0.9,0c-0.3,0.1-0.7,0.1-0.9,0c-0.3-0.1-0.5-0.1-0.9,0
			c-0.4,0.1-0.6,0-0.9,0c-0.4-0.1-0.6,0-0.9,0c-0.3,0.1-0.5,0.1-0.9,0l-0.9,0c-0.4,0.1-0.7-0.1-0.9,0c-0.1,0.1-0.2-0.1-0.6,0.1
			c-0.4,0.1-0.5,0-0.9-0.1c-0.5-0.1-0.3-0.6,0-0.6c0.2-0.1,0.4,0.1,0.7,0c0.3-0.2,0.2-0.4,0.1-0.6c-0.1-0.2-0.1-0.4-0.2-0.6
			c-0.1-0.1,0-0.5-0.2-0.6c-0.2-0.3-0.2-0.3-0.2-0.6c-0.1-0.2-0.3-0.3-0.2-0.6c-0.2-0.2-0.2-0.4-0.2-0.6c-0.1,0-0.3-0.3-0.2-0.5
			c0-0.3-0.5-0.4-0.7,0c0,0.2-0.2,0.5-0.3,0.6c-0.2,0.4-0.1,0.3-0.4,0.7c-0.2,0.2-0.1,0.4-0.3,0.6c-0.1,0.1-0.1,0.3-0.3,0.6
			c-0.2,0.2-0.3,0.4-0.4,0.5c-0.2,0.5-0.4,0.8-0.4,0.9c0,0.3,0.2,0.3,0.3,0.3c0.4,0.1,0.4-0.1,0.7,0.1c0.2,0.2,0.3,0.6-0.1,0.6
			c-0.4,0-0.5-0.1-0.8,0C92.2,35,91.9,35,91.7,35c-0.3,0.1-0.5,0-0.8,0c-0.2,0-0.6,0-0.8,0c-0.1,0-0.2-0.2-0.2-0.3
			c0-0.2,0-0.4,0.5-0.4c0.3,0,0.4,0.1,0.4,0c0.4,0.1,0.5,0.1,0.7-0.2c0.3-0.1,0.2-0.4,0.4-0.5c0.1-0.3,0.2-0.4,0.3-0.6
			c0-0.1,0.4-0.2,0.3-0.5c0.1-0.3,0.3-0.5,0.6-1c0.2-0.3,0.3-0.7,0.6-1L94.1,29.7z M100.7,31.4c-0.1-0.3-0.1-0.7,0-0.8
			c-0.1-0.2,0-0.7,0-0.8c0-0.2,0.3-0.4,0.1-0.8c-0.1-0.3,0.3-0.3,0-0.9c-0.1-0.2,0-0.5-0.1-0.8c0-0.3,0.1-0.5,0-0.8
			c0-0.3,0.3-0.4,0-0.8c0.1-0.3,0-0.5,0-0.9c0.1-0.3,0.1-0.5,0-0.8c0.1-0.2,0.1-0.5,0.1-0.8c0-0.5,0-0.8,0.1-1.1
			c0-0.2,0-0.3-0.2-0.3c-0.1,0-0.3-0.1-0.6-0.2c-0.4,0-0.5,0-0.8,0.2c-0.2,0.3-0.4,0.5-0.6,0.9c-0.2,0.4-0.4,0.6-0.6,1
			c-0.2,0.4-0.4,0.5-0.6,1c-0.2,0.5-0.3,1-0.6,1.1c-0.2,0.4-0.3,0.6-0.3,1c0,0.5,0,0.6,0.1,0.9c0.1,0.2,0.1,0.6,0.4,1
			c0,0.3,0.4,0.7,0.4,1c0.2,0.3,0.2,0.6,0.4,1c0.1,0.4,0.3,0.6,0.4,1c0,0.5,0.2,0.8,0.4,1c0,0.4,0.3,0.7,0.4,1
			c0.1,0.3,0.2,0.7,0.4,1.1c0.1,0.1,0.3,0,0.6,0c0.2-0.1,0.3-0.2,0.2-0.4c-0.1-0.3,0.1-1,0-1.3c0-0.3,0-0.5,0-0.8L100.7,31.4z
			 M105.6,29.9c0.1-0.4,0-0.6,0-0.8c0-0.3,0.1-0.4,0-0.8c0-0.2,0-0.6,0-0.8c0-0.4,0.4-0.5,0.1-0.8c0-0.4-0.2-0.7,0-0.9
			c0.1-0.3,0-0.4,0-0.9c0.1-0.4,0.1-0.7,0-0.8c0-0.2-0.1-0.5,0-0.8c0-0.4,0.1-1,0-1.3c0.1-0.2-0.2-0.5-0.5-0.4c-0.3-0.1-0.9,0-1.2,0
			c-0.2,0.1-0.3,0.1-0.4,0.4c0,0.5-0.2,1,0,1.3c0,0.4,0.1,0.5,0,0.8c-0.1,0.4,0.1,0.5,0,0.8c0.1,0.2,0,0.6,0,0.9c0,0.2,0,0.6,0,0.8
			c-0.1,0.4-0.1,0.5,0,0.8c0,0.2,0,0.6,0,0.8c0.1,0.2-0.3,0.4,0,0.8c0.2,0.3,0,0.6,0,0.8c0,0.4-0.1,0.5,0,0.8
			c-0.1,0.2-0.1,0.5,0,0.8c0,0.2-0.1,0.6,0,0.8c0,0.4,0.1,0.6,0,0.8c-0.1,0.4,0,0.8,0,1.3c0,0.3,0.2,0.3,0.5,0.4
			c0.4,0,0.6,0.1,1.1,0c0.2,0,0.4-0.2,0.5-0.4c0.1-0.4-0.1-0.9,0-1.3c0-0.3,0.1-0.6,0-0.8c0-0.1-0.1-0.5,0-0.8
			c0.3-0.4-0.1-0.5,0-0.8L105.6,29.9z"/>
	</g>
	<g>
		<circle class="st0" cx="100.1" cy="100.1" r="3.7"/>
	</g>
	<g>
		<path class="st0" d="M100.1,105.4c-2.9,0-5.3-2.4-5.4-5.3c-0.1-3,2.3-5.4,5.3-5.5c3-0.1,5.4,2.3,5.5,5.3c0.1,3-2.3,5.4-5.3,5.5
			C100.1,105.4,100.1,105.4,100.1,105.4z M100.1,95C100,95,100,95,100.1,95c-2.9,0.1-5.1,2.4-5,5.1c0.1,2.8,2.4,5,5.1,4.9
			c2.8-0.1,5-2.4,4.9-5.1C105,97.2,102.8,95,100.1,95z"/>
	</g>
	<g>
		<polygon class="st0" points="105.3,93.2 72.4,138.8 103.9,92.2 		"/>
	</g>
	<g>
		<path class="st0" d="M100.1,46.9l0.8,2.1l0.7,2.1l0.7,2.1c0.1,0.3,0.2,0.7,0.4,1c0.1,0.3,0.2,0.7,0.3,1c0.2,0.7,0.4,1.4,0.6,2.1
			l0.3,1l0.1,0.3c0,0.1,0.1,0.2,0.1,0.3c0.1,0.1,0.1,0.2,0.1,0.3c0,0.1,0,0.2-0.1,0.3c-0.2,0.3-0.5,0.7-0.8,1c-0.3,0.3-0.6,0.7-1,1
			c-0.3,0.3-0.7,0.7-0.9,1c-0.3,0.3-0.4,0.7-0.6,1c-0.1,0.2-0.1,0.3-0.1,0.5c0,0.2,0,0.3,0,0.5l0,0.5l0,0.5l0,0.5l0,0.5
			c0,0.3,0,0.7,0,1c0,1.4,0,2.8,0,4.2c0,1.4,0.1,2.8,0.2,4.2c0.1,1.4,0.2,2.8,0.3,4.2c0.2,2.8,0.4,5.6,0.4,8.4c0,0.3,0,0.7,0,1
			l0,0.5l0,0.5c0,0.7,0,1.4-0.1,2.1c-0.1,0.7-0.2,1.4-0.4,2.1c-0.2,0.7-0.4,1.4-0.5,2.1c-0.2,0.7-0.3,1.4-0.4,2.1
			c-0.1,0.7-0.2,1.4-0.2,2.1c0,1.4,0,2.8,0.1,4.2c0.1,1.4,0.2,2.8,0.4,4.2c0.1,0.7,0.2,1.4,0.4,2.1c0.1,0.7,0.3,1.4,0.5,2.1l-3.5,0
			c0.2-0.7,0.4-1.4,0.5-2.1c0.1-0.7,0.3-1.4,0.4-2.1c0.2-1.4,0.4-2.8,0.5-4.2c0.1-1.4,0.1-2.8,0.1-4.2c0-0.7-0.1-1.4-0.2-2.1
			c-0.1-0.7-0.2-1.4-0.4-2.1c-0.2-0.7-0.4-1.4-0.5-2.1c-0.2-0.7-0.3-1.4-0.4-2.1c-0.1-0.7-0.1-1.4-0.1-2.1l0-0.5l0-0.5
			c0-0.3,0-0.7,0-1c0-2.8,0.2-5.6,0.5-8.4c0.1-1.4,0.3-2.8,0.4-4.2c0.1-1.4,0.2-2.8,0.3-4.2c0.1-1.4,0.1-2.8,0-4.2c0-0.3,0-0.7,0-1
			l0-0.5l0-0.5l0-0.5l0-0.5c0-0.2,0-0.3,0-0.5c0-0.2-0.1-0.3-0.1-0.5c-0.1-0.3-0.3-0.7-0.5-1c-0.3-0.4-0.6-0.7-0.9-1.1
			c-0.3-0.4-0.7-0.7-1-1.1c-0.3-0.4-0.5-0.7-0.7-1.1c-0.1-0.1-0.1-0.2-0.1-0.3c0-0.1,0.1-0.2,0.1-0.3c0.1-0.1,0.1-0.2,0.1-0.3
			l0.1-0.3l0.3-1c0.2-0.7,0.4-1.4,0.6-2.1c0.1-0.3,0.2-0.7,0.3-1c0.1-0.3,0.2-0.7,0.4-1l0.8-2.1l0.8-2.1l0.8-2.1L100.1,46.9z"/>
	</g>
	<g>
		<path class="st0" d="M138.5,77.2l-1,1.5l-1,1.5l-1,1.5c-0.2,0.2-0.3,0.5-0.5,0.7c-0.2,0.2-0.4,0.5-0.5,0.7
			c-0.4,0.5-0.7,0.9-1.1,1.4l-0.6,0.7l-0.1,0.2c0,0.1-0.1,0.1-0.1,0.2c0,0.1-0.1,0.2-0.1,0.2c-0.1,0-0.1,0.1-0.2,0
			c-0.3,0-0.7-0.1-1.1-0.2c-0.4-0.1-0.8-0.3-1.2-0.4c-0.4-0.2-0.8-0.3-1.2-0.4c-0.4-0.1-0.7-0.1-1-0.1c-0.1,0-0.3,0.1-0.4,0.1
			c-0.1,0.1-0.3,0.1-0.4,0.2c-0.3,0.1-0.5,0.2-0.7,0.4c-0.5,0.2-1,0.5-1.5,0.8c-1,0.5-1.9,1.1-2.9,1.7c-0.9,0.6-1.8,1.3-2.7,1.9
			c-0.9,0.7-1.8,1.3-2.7,2c-1.8,1.3-3.6,2.6-5.5,3.8c-0.2,0.1-0.5,0.3-0.7,0.4l-0.4,0.2l-0.4,0.2c-0.2,0.1-0.5,0.3-0.7,0.4
			c-0.2,0.1-0.5,0.2-0.8,0.3c-0.5,0.2-1.1,0.4-1.6,0.5c-0.6,0.1-1.1,0.3-1.7,0.4c-0.6,0.1-1.1,0.3-1.6,0.5c-0.5,0.2-1,0.4-1.5,0.7
			c-1,0.6-1.9,1.2-2.8,1.8c-0.9,0.6-1.8,1.3-2.6,2.1c-0.4,0.4-0.8,0.8-1.2,1.2c-0.4,0.4-0.8,0.8-1.2,1.3l-1.8-3
			c0.6-0.1,1.1-0.2,1.7-0.4c0.6-0.2,1.1-0.3,1.6-0.5c1.1-0.4,2.1-0.8,3.1-1.3c1-0.5,2-1,2.9-1.6c0.5-0.3,0.9-0.6,1.3-1
			c0.4-0.4,0.8-0.8,1.2-1.2c0.4-0.4,0.8-0.9,1.2-1.3c0.4-0.4,0.8-0.8,1.2-1.2c0.2-0.2,0.4-0.3,0.7-0.5c0.2-0.2,0.5-0.3,0.7-0.4
			l0.4-0.2l0.4-0.2c0.2-0.1,0.5-0.3,0.7-0.4c1.9-1.1,3.9-2.1,6-3c1-0.5,2-0.9,3-1.4c1-0.5,2-1,3-1.5c1-0.5,1.9-1.1,2.9-1.7
			c0.5-0.3,0.9-0.6,1.4-0.9c0.2-0.2,0.5-0.3,0.7-0.5c0.1-0.1,0.2-0.2,0.3-0.2c0.1-0.1,0.2-0.2,0.3-0.3c0.2-0.2,0.3-0.5,0.4-0.9
			c0.1-0.4,0.2-0.8,0.2-1.2c0.1-0.4,0.1-0.9,0.2-1.3c0.1-0.4,0.2-0.8,0.3-1.1c0-0.1,0.1-0.1,0.1-0.2c0.1,0,0.2,0,0.2,0
			c0.1,0,0.2,0,0.2,0l0.2,0l0.9-0.2c0.6-0.1,1.2-0.2,1.8-0.3c0.3,0,0.6-0.1,0.9-0.1c0.3,0,0.6-0.1,0.9-0.1l1.8-0.2l1.8-0.2l1.8-0.2
			L138.5,77.2z"/>
	</g>
</g>
<path class="st0" d="M100,14c47.4,0,86,38.6,86,86s-38.6,86-86,86s-86-38.6-86-86S52.6,14,100,14 M100,10c-49.7,0-90,40.3-90,90
	s40.3,90,90,90s90-40.3,90-90S149.7,10,100,10L100,10z"/>
</svg>
