<?xml version="1.0" encoding="utf-8"?>
<!-- Generator: Adobe Illustrator 24.0.2, SVG Export Plug-In . SVG Version: 6.00 Build 0)  -->
<svg version="1.1" id="hari" xmlns="http://www.w3.org/2000/svg" xmlns:xlink="http://www.w3.org/1999/xlink" x="0px" y="0px"
	 viewBox="0 0 200 200" style="enable-background:new 0 0 200 200;" xml:space="preserve">
<style type="text/css">
	.st0{fill:#FFFFFF;}
	.st1{filter:url(#Adobe_OpacityMaskFilter);}
	.st2{mask:url(#SVGID_1_);}
	.st3{filter:url(#Adobe_OpacityMaskFilter_1_);}
	.st4{mask:url(#XMLID_2_);}
</style>
<defs>
	<filter id="Adobe_OpacityMaskFilter" filterUnits="userSpaceOnUse" x="36" y="62.9" width="129" height="90.2">
		<feColorMatrix  type="matrix" values="1 0 0 0 0  0 1 0 0 0  0 0 1 0 0  0 0 0 1 0"/>
	</filter>
</defs>
<mask maskUnits="userSpaceOnUse" x="36" y="62.9" width="129" height="90.2" id="SVGID_1_">
	<g class="st1">
		<rect x="0" class="st0" width="200" height="200"/>
		<rect x="-1.8" y="107.4" transform="matrix(0.7071 0.7071 -0.7071 0.7071 111.7356 -44.2017)" width="222" height="10.7"/>
	</g>
</mask>
<g class="st2">
	<path class="st0" d="M78.1,99H66.6v43.9H79c-4.8-6.3-7.7-14.1-7.7-22.6C71.4,112.4,73.9,105.1,78.1,99z"/>
	<path class="st0" d="M43.3,149.5h42.2c-1.4-1.1-2.8-2.4-4.1-3.7H43.3c-3.2,0-5.6-0.7-7.3-1.7v1.6C36,148,39,149.5,43.3,149.5z"/>
	<path class="st0" d="M137.9,142.9h12V99h-11.1c4.3,6,6.8,13.4,6.8,21.3C145.6,128.8,142.7,136.7,137.9,142.9z"/>
	<path class="st0" d="M165,145.8v-1.6c-1.8,1-4.2,1.7-7.3,1.7h-22.2c-1.3,1.3-2.6,2.6-4.1,3.7h26.3C162,149.5,165,148,165,145.8z"/>
	<path class="st0" d="M43.3,96.1h37.1c6.8-7.9,16.9-12.9,28.1-12.9s21.3,5,28.1,12.9h21.1c3.5,0,6.1-1,7.3-2.5V80.7
		c-1.8,1-4.3,1.6-7.3,1.6H43.3c-3.1,0-5.5-0.6-7.3-1.6v12.9C37.2,95.1,39.9,96.1,43.3,96.1z M59.5,87.6c0-1.8,1.5-3.2,3.2-3.2h9
		c1.8,0,3.2,1.5,3.2,3.2v3.3c0,1.8-1.5,3.2-3.2,3.2h-9c-1.8,0-3.2-1.5-3.2-3.2V87.6z"/>
	<path class="st0" d="M43.3,142.9h20.4V99H43.3c-3.2,0-5.6-0.7-7.3-1.7v43.1C37.2,141.9,39.9,142.9,43.3,142.9z"/>
	<path class="st0" d="M165,97.3c-1.8,1-4.2,1.7-7.3,1.7h-4.9v43.9h4.9c3.5,0,6.1-1,7.3-2.5V97.3z"/>
	<path class="st0" d="M37.2,76.3c1.3,1,3.5,1.6,6.2,1.6h114.3c2.7,0,4.9-0.6,6.2-1.6c0.8-0.6,1.2-1.3,1.2-2.2c0,0-0.4,0-1,0h1
		c0-0.8-0.4-1.6-1.2-2.2c-1.3-1-3.5-1.6-6.2-1.6H87.9V72v1c0,0.4-0.1,0.8-0.3,1.1c-0.9,1.4-3.3,2-5.7,2.2c-0.4,0-0.9,0-1.3,0
		c-0.4,0-0.9,0-1.3,0c-2.4-0.2-4.9-0.8-5.7-2.2c-0.2-0.3-0.3-0.7-0.3-1.1v-1v-1.6h-3.8v0.5c0,0.4-0.1,0.7-0.2,1.1
		c-0.4,0.9-1.1,1.6-2.2,2.2c-2.3,1.3-6,2-9.8,2.2c-0.6,0-1.2,0-1.8,0c-0.6,0-1.2,0-1.8,0c-3.8-0.2-7.4-0.9-9.8-2.2
		c-1.1-0.6-1.8-1.3-2.2-2.2c-0.1-0.3-0.2-0.7-0.2-1.1v-0.4c-1.8,0.2-3.3,0.7-4.2,1.5c-0.8,0.6-1.2,1.3-1.2,2.2
		C36,75,36.4,75.7,37.2,76.3z M151.6,73.7c0-0.7,0.6-1.4,1.4-1.8c0.6-0.3,1.3-0.4,2.1-0.4s1.5,0.2,2.1,0.4c0.9,0.4,1.4,1.1,1.4,1.8
		c0,0.1,0,0.3-0.1,0.4c-0.3,1-1.7,1.8-3.4,1.8s-3.2-0.8-3.4-1.8C151.6,74,151.6,73.9,151.6,73.7z"/>
	<path class="st0" d="M108.5,135.4c8.3,0,15-6.7,15-15c0-8.3-6.7-15-15-15c-8.3,0-15,6.7-15,15C93.4,128.6,100.2,135.4,108.5,135.4z
		 M105.5,108.4c5.6-1.4,11.4,1.2,14,6.4c1.5,2.9,1.8,6.3,0.7,9.4c-0.2,0.6-0.8,1-1.4,1c-0.1,0-0.3,0-0.4-0.1
		c-0.8-0.2-1.2-1.1-0.9-1.8c0.8-2.4,0.6-5-0.6-7.2c-2-3.9-6.4-6-10.7-4.9c-0.8,0.2-1.6-0.3-1.8-1.1
		C104.2,109.3,104.7,108.5,105.5,108.4z"/>
	<path class="st0" d="M102.9,142.9c1.8,0.4,3.6,0.7,5.5,0.7c1.9,0,3.8-0.3,5.5-0.7c10.2-2.5,17.7-11.7,17.7-22.6
		c0-9.6-5.8-17.8-14-21.3c-2.8-1.2-5.9-1.9-9.2-1.9c-3.3,0-6.4,0.7-9.2,1.9c-8.3,3.6-14,11.8-14,21.3
		C85.2,131.3,92.8,140.4,102.9,142.9z M108.5,101c10.7,0,19.4,8.7,19.4,19.4c0,10.7-8.7,19.4-19.4,19.4c-10.7,0-19.4-8.7-19.4-19.4
		C89.1,109.7,97.8,101,108.5,101z"/>
	<path class="st0" d="M87.9,145.8c1.8,1.4,3.7,2.7,5.7,3.7c1.7,0.9,3.5,1.6,5.4,2.2c3,0.9,6.2,1.4,9.5,1.4c3.3,0,6.5-0.5,9.5-1.4
		c1.9-0.6,3.7-1.3,5.4-2.2c2-1,4-2.3,5.7-3.7c1.1-0.9,2.2-1.9,3.1-2.9c5.6-5.9,9-13.8,9-22.6c0-8.2-3-15.6-7.9-21.3
		c-0.9-1-1.8-2-2.8-2.9c-5.8-5.3-13.6-8.5-22-8.5c-8.5,0-16.2,3.2-22,8.5c-1,0.9-1.9,1.9-2.8,2.9c-4.9,5.7-7.9,13.2-7.9,21.3
		c0,8.7,3.4,16.7,9,22.6C85.7,144,86.8,144.9,87.9,145.8z M82.3,120.4c0-8.8,4.4-16.6,11.1-21.3c1.6-1.2,3.4-2.1,5.3-2.9
		c3-1.2,6.3-1.9,9.8-1.9c3.5,0,6.7,0.7,9.8,1.9c1.9,0.8,3.7,1.7,5.3,2.9c6.7,4.7,11.1,12.5,11.1,21.3c0,9.6-5.2,18-13,22.6
		c-2.2,1.3-4.7,2.3-7.3,2.9c-1.9,0.4-3.9,0.7-5.9,0.7c-2,0-4-0.3-5.9-0.7c-2.6-0.6-5-1.6-7.3-2.9C87.5,138.4,82.3,130,82.3,120.4z"
		/>
	<path class="st0" d="M55.4,71c-2.3,0-4.7-0.2-6.8-0.6C47,70,45.5,69.6,44.3,69v1.4v0.5c0.1,0.3,0.6,0.7,1.6,1.1
		c1.8,0.7,4.9,1.5,9.4,1.5c4.5,0,7.7-0.8,9.4-1.5c1-0.4,1.6-0.8,1.6-1.1l0-0.5l0-1.4c-1.2,0.6-2.7,1-4.3,1.4
		C60,70.8,57.6,71,55.4,71z"/>
	<path class="st0" d="M44.8,66c1.2,0.8,4.8,2.1,10.6,2.1c5.7,0,9.3-1.2,10.5-2.1c0.2-0.1,0.3-0.3,0.4-0.4l0.1-0.1
		c-0.2-0.5-1.8-1.4-5-2c3.1,0.6,4.8,1.6,5,2c-0.1-0.5-2.3-1.7-6.4-2.3c-0.7-0.1-1.4-0.2-2.2-0.2c-0.8-0.1-1.6-0.1-2.5-0.1
		c-7.1,0-10.9,1.9-11.1,2.6C44.3,65.7,44.5,65.8,44.8,66z"/>
	<path class="st0" d="M66.3,65.7c0-0.1,0.1-0.1,0.1-0.1C66.4,65.5,66.3,65.7,66.3,65.7z"/>
	<path class="st0" d="M85,72.7V72v-0.2c-0.2,0.1-0.5,0.1-0.7,0.2c-1.2,0.3-2.5,0.4-3.8,0.4c-1.3,0-2.6-0.1-3.8-0.4
		c-0.2-0.1-0.5-0.1-0.7-0.2V72v0.7c0.5,0.3,2.1,0.8,4.5,0.8C82.9,73.5,84.5,73,85,72.7z"/>
	<path class="st0" d="M84.2,69c-0.1,0-0.1,0-0.2-0.1c-0.2-0.1-0.4-0.1-0.7-0.2c-0.1,0-0.2,0-0.3-0.1c-0.2,0-0.5-0.1-0.8-0.1
		c-0.1,0-0.2,0-0.4,0c-0.4,0-0.8-0.1-1.3-0.1c-0.5,0-0.9,0-1.3,0.1c-0.1,0-0.2,0-0.4,0c-0.3,0-0.5,0.1-0.8,0.1c-0.1,0-0.2,0-0.3,0.1
		c-0.3,0.1-0.5,0.1-0.7,0.2c0,0-0.1,0-0.1,0c0.8,0.3,2,0.5,3.6,0.5C82.1,69.5,83.4,69.2,84.2,69z"/>
	<path class="st0" d="M62.7,91.2h9c0.2,0,0.3-0.2,0.3-0.3v-3.3c0-0.2-0.2-0.3-0.3-0.3h-9c-0.2,0-0.3,0.2-0.3,0.3v3.3
		C62.4,91.1,62.5,91.2,62.7,91.2z"/>
</g>
<path class="st0" d="M100.2,13.6c-49.7,0-90,40.3-90,90c0,23.9,9.5,46.8,26.4,63.6c35.1,35.1,92.1,35.1,127.3,0s35.1-92.1,0-127.3
	c0,0,0,0,0,0C147,23.1,124.1,13.6,100.2,13.6z M156.2,168c-35.6,30.9-89.5,27.1-120.4-8.4c-27.9-32.1-27.9-79.9,0-112
	c1.2-1.4,3.3-1.5,4.7-0.3c0.1,0.1,0.1,0.1,0.2,0.2l115.6,115.6c1.3,1.3,1.3,3.4,0,4.8C156.3,167.9,156.3,168,156.2,168L156.2,168z
	 M164.6,159.6c-0.6,0.7-1.5,1.1-2.4,1.2c0,0-0.1,0-0.1,0c-0.9,0-1.7-0.4-2.4-1l0,0L44.1,44.2c-1.3-1.3-1.3-3.4,0-4.8
	c0.1-0.1,0.1-0.1,0.2-0.2c35.6-30.9,89.5-27.1,120.4,8.4C192.5,79.8,192.5,127.5,164.6,159.6z"/>
</svg>
