<svg width="400" height="604" viewBox="0 0 400 604" fill="none" xmlns="http://www.w3.org/2000/svg">
<path d="M186.589 474.019L177.25 478.918V435.284H186.589V474.019Z" fill="#A4A4A4" stroke="black" stroke-width="0.671953"/>
<path d="M177.555 478.689L171.049 473.483V439.954H177.632L177.555 478.689Z" fill="#A4A4A4" stroke="black" stroke-width="0.671953"/>
<path d="M171.049 473.483L151.299 482.21L151.069 435.284L170.972 435.054L171.049 473.483Z" fill="#A4A4A4" stroke="black" stroke-width="0.671953"/>
<path d="M151.299 482.21L147.701 492.62L147.931 445.771L151.222 444.929L151.299 482.21Z" fill="#A4A4A4" stroke="black" stroke-width="0.671953"/>
<path d="M147.701 492.62L75.5134 481.138V456.182L148.007 455.34L147.701 492.62Z" fill="#A4A4A4" stroke="black" stroke-width="0.671953"/>
<path d="M103.225 320.382L88.144 301.934V276.978L102.918 276.212L103.225 320.382Z" fill="#A4A4A4" stroke="black" stroke-width="0.671953"/>
<path d="M66.4802 264.271L49.5625 277.514L49.1794 252.022L65.8674 251.486L66.4802 264.271Z" fill="#A4A4A4" stroke="black" stroke-width="0.671953"/>
<path d="M49.7158 277.668L42.2908 259.984V248.578L49.7158 264.118V277.668Z" fill="#A4A4A4" stroke="black" stroke-width="0.671953"/>
<path d="M75.5135 481.368L55.0747 487.109L55.4577 444.93L75.5142 444.088L75.5135 481.368Z" fill="#A4A4A4" stroke="black" stroke-width="0.671953"/>
<path d="M55.2271 496.755L31.6497 507.472V475.091L55.3037 459.475L55.2271 496.755Z" fill="#A4A4A4" stroke="black" stroke-width="0.671953"/>
<path d="M31.6497 507.472L23.0762 492.62L22.8464 479.76L31.7263 482.517L31.6497 507.472Z" fill="#A4A4A4" stroke="black" stroke-width="0.671953"/>
<path d="M48.6439 461.618L29.9656 458.097L29.7358 445.16H49.7157L48.6439 461.618Z" fill="#A4A4A4" stroke="black" stroke-width="0.671953"/>
<path d="M47.8021 404.588L46.6544 397.469L46.4246 385.91L54.0794 386.215L47.8021 404.588Z" fill="#A4A4A4" stroke="black" stroke-width="0.671953"/>
<path d="M221.725 442.174L184.446 456.948V413.39H221.725V442.174Z" fill="#A4A4A4" stroke="black" stroke-width="0.671953"/>
<path d="M93.6555 269.86L69.695 258.913L68.9297 215.508H107.052L93.6555 269.86Z" fill="#A4A4A4" stroke="black" stroke-width="0.671953"/>
<path d="M69.6955 259.142L67.2456 246.817V203.182L69.4657 202.647L69.6955 259.142Z" fill="#A4A4A4" stroke="black" stroke-width="0.671953"/>
<path d="M70.3078 234.186L53.0071 233.651V200.198L70.3078 205.403V234.186Z" fill="#A4A4A4" stroke="black" stroke-width="0.671953"/>
<path d="M109.272 181.214L96.6416 171.339V158.784L113.942 143.091L109.272 181.214Z" fill="#A4A4A4" stroke="black" stroke-width="0.671953"/>
<path d="M103.99 151.053L82.8618 147.532V134.9L110.343 119.208L103.99 151.053Z" fill="#A4A4A4" stroke="black" stroke-width="0.671953"/>
<path d="M82.9384 147.532L62.04 113.773V101.142L82.9384 92.1092V147.532Z" fill="#A4A4A4" stroke="black" stroke-width="0.671953"/>
<path d="M235.198 448.757L221.494 442.25V399.076H235.427L235.198 448.757Z" fill="#A4A4A4" stroke="black" stroke-width="0.671953"/>
<path d="M239.562 435.284L235.198 448.757V404.588H239.486L239.562 435.284Z" fill="#A4A4A4" stroke="black" stroke-width="0.671953"/>
<path d="M260.996 431.763L239.562 435.284V391.65H260.996V431.763Z" fill="#A4A4A4" stroke="black" stroke-width="0.671953"/>
<path d="M270.335 443.092L260.997 431.763V388.129H270.565L270.335 443.092Z" fill="#A4A4A4" stroke="black" stroke-width="0.671953"/>
<path d="M288.478 447.073L270.259 443.016V399.382H288.402L288.478 447.073Z" fill="#A4A4A4" stroke="black" stroke-width="0.671953"/>
<path d="M304.094 417.448L288.401 447.073V403.516H304.094V417.448Z" fill="#A4A4A4" stroke="black" stroke-width="0.671953"/>
<path d="M345.509 393.334L304.017 417.448V373.814L345.738 363.709L345.509 393.334Z" fill="#A4A4A4" stroke="black" stroke-width="0.671953"/>
<path d="M359.21 373.049L345.508 393.334V350.007L359.517 350.543L359.21 373.049Z" fill="#A4A4A4" stroke="black" stroke-width="0.671953"/>
<path d="M376.817 312.421L359.21 373.049V329.645L376.587 298.413L376.817 312.421Z" fill="#A4A4A4" stroke="black" stroke-width="0.671953"/>
<path d="M127.032 552.024L66.8633 566.951V537.326H126.879L127.032 552.024Z" fill="#A4A4A4" stroke="black" stroke-width="0.671953"/>
<path d="M66.9399 566.875L46.6543 543.45V531.125L66.8633 552.1L66.9399 566.875Z" fill="#A4A4A4" stroke="black" stroke-width="0.671953"/>
<path d="M136.754 528.14L127.109 551.947V539.546L136.83 515.739L136.754 528.14Z" fill="#A4A4A4" stroke="black" stroke-width="0.671953"/>
<path d="M46.5771 531.126C46.8836 530.284 98.632 503.95 98.632 503.95L136.754 515.739L126.955 539.699L66.7102 554.78L46.5771 531.126Z" fill="#A4A4A4" stroke="black" stroke-width="0.671953"/>
<path d="M339.461 321.454L306.007 336.84L251.426 331.022L234.662 309.895L219.276 304.536L212.463 306.373L191.87 335.156L199.526 352.763L188.732 364.246L196.158 385.526L211.467 410.176L216.521 432.223L202.512 437.429L221.496 430.386L235.199 436.434L239.562 422.655L260.996 419.363L270.335 430.922L288.402 434.75L304.324 404.588L345.509 381.01L359.21 360.648L368.779 327.808L339.461 321.454Z" fill="#FCC81C" stroke="black" stroke-width="0.671953"/>
<path d="M51.936 224.694L42.2908 248.578L49.5633 265.19L66.4811 251.87L51.936 224.694Z" fill="#A4A4A4" stroke="black" stroke-width="0.671953"/>
<path d="M159.183 178.994L206.262 148.91L256.097 146.536L288.937 172.794C288.937 172.794 282.354 212.217 280.823 212.217C279.291 212.217 235.657 232.656 235.657 232.656L237.189 265.879L233.59 293.82L209.783 299.025L180.847 298.643L148.772 224.924L159.183 178.994Z" fill="#A4A4A4" stroke="black" stroke-width="0.671953"/>
<path d="M192.789 293.82V283.332L187.89 265.114L185.134 249.344L171.355 236.254L163.7 212.064L173.422 204.639L165.69 188.104L118.305 189.635L107.435 179.454V179.607L83.8571 171.952L51.9353 199.357L53.0071 221.327L66.7095 221.863L67.3217 233.957L69.4652 246.512L93.6555 257.536L85.924 272.31L87.4547 284.251L109.348 293.974L125.73 285.859L134.227 286.319L143.107 288.539L156.733 278.664L167.067 279.2L176.712 293.974L192.789 293.82Z" fill="#A4A4A4" stroke="black" stroke-width="0.671953"/>
<path d="M219.046 304.46L216.825 290.451L216.979 290.221L199.831 293.436H192.789V293.743L176.713 293.896L167.068 279.122L156.734 278.585L143.108 288.46L134.228 286.24L125.73 285.781L109.349 293.972L87.4552 284.173L86.4601 276.594L88.144 289.378L100.775 305.836L84.3165 326.658L79.877 351.384L81.0253 345.26L95.4931 364.321L118.458 350.006L138.438 359.345L153.749 367.536L188.503 363.555L188.733 364.244L199.526 352.761L191.871 335.154L212.463 306.371L219.276 304.534L222.644 305.682L219.046 304.46Z" fill="#A4A4A4" stroke="black" stroke-width="0.671953"/>
<path d="M374.597 278.356L362.502 283.868L368.014 202.112L358.139 187.796L351.555 148.909L352.168 152.43L340.532 170.343L328.437 171.567L285.722 174.324L277.761 170.266L268.957 201.576L248.901 196.906L217.898 221.556L219.581 227.604L214.071 253.708L226.931 266.338L216.826 290.451L219.047 304.461L234.663 309.896L251.427 331.023L306.008 336.841L339.461 321.454L368.779 327.808L376.742 300.327L374.597 278.356Z" fill="#A4A4A4" stroke="black" stroke-width="0.671953"/>
<path d="M351.555 148.91L323.002 101.678L269.263 20.4573L261.991 16.8596L256.632 26.5048L239.026 27.9596L231.371 39.6717L193.478 45.7193L151.222 42.1217L157.193 58.1209L187.813 84.9902C187.813 84.9902 188.502 112.395 189.268 112.395C190.034 112.395 211.008 120.51 211.008 120.51L204.349 160.01L215.218 164.22C215.218 164.22 245.304 154.804 246.759 155.034C248.213 155.264 285.722 174.325 285.722 174.325L328.437 171.569L340.532 170.344L352.168 152.431L351.555 148.91Z" fill="#A4A4A4" stroke="black" stroke-width="0.671953"/>
<path d="M211.007 120.51C211.007 120.51 190.033 112.395 189.267 112.395C188.502 112.395 187.812 84.9901 187.812 84.9901L157.192 58.1208L151.221 42.1216L148.542 41.8918L122.056 56.1298L121.596 61.6418L104.066 73.7363L110.114 87.4394L98.0185 94.5587L77.733 84.6837L61.811 101.143L82.6328 135.131L105.675 138.958L96.4119 158.785L107.359 167.511V179.453L118.229 189.634L165.614 188.103L165.997 188.869L188.579 171.339L209.094 161.847L204.348 160.01L211.007 120.51Z" fill="#FCC81C" stroke="black" stroke-width="0.671953"/>
<path d="M211.467 410.176L196.157 385.526L188.502 363.557L153.748 367.537L138.437 359.347L118.457 350.008L95.4919 364.323L81.0241 345.262L79.8757 351.386L66.7088 371.671L68.929 380.475L46.5758 384.992L49.1789 400.225L37.0838 410.1L29.9658 445.772L45.8884 449.064L22.8464 479.761L31.6497 495.147L55.2272 484.124V474.785L75.5127 468.814L147.93 480.297L151.221 469.886L170.971 461.083L177.554 466.594L186.358 461.618L184.75 444.088L216.519 432.223L211.467 410.176Z" fill="#A4A4A4" stroke="black" stroke-width="0.671953"/>
<path d="M100.392 372.895H126.879L137.825 383.842L113.865 397.851L95.4165 383.842L100.392 372.895Z" fill="#A4A4A4" stroke="black" stroke-width="0.671953"/>
<path d="M262.526 304.689L267.043 317.473L263.063 332.247L277.377 333.778L299.118 305.914L286.794 290.297L262.526 304.689Z" fill="#A4A4A4" stroke="black" stroke-width="0.671953"/>
<path d="M188.119 266.185L187.813 265.113L185.057 249.343L171.278 236.253L170.972 235.411L157.575 255.314L173.192 268.94L188.119 266.185Z" fill="#A4A4A4" stroke="black" stroke-width="0.671953"/>
<path d="M153.793 211.473L148.772 214.413L145.982 230.708L151.945 250.698L158.133 254.487L170.91 235.548L163.908 212.721L153.793 211.473Z" fill="#A4A4A4" stroke="black" stroke-width="0.671953"/>
<path d="M94.5748 117.906L90.0586 103.055L95.4174 93.3336L77.7343 84.6828L61.811 101.142L82.6328 135.13L105.062 138.882L117.617 131.839L114.325 112.089L94.5748 117.906Z" fill="#FCC81C" stroke="black" stroke-width="0.671953"/>
<path d="M155.126 119.131L132.467 106.347L115.472 118.749L117.233 129.542L132.849 134.748L155.891 129.007L155.126 119.131Z" fill="#A4A4A4" stroke="black" stroke-width="0.671953"/>
<path d="M305.472 403.975L345.509 381.01L351.173 372.589L343.135 358.658L310.677 375.882L307.769 385.374L275.694 394.866L285.109 403.899L302.871 397.698L305.472 403.975Z" fill="#A4A4A4" stroke="black" stroke-width="0.671953"/>
<path d="M339.461 321.454L326.447 327.425C324.839 332.784 323.385 338.066 323.385 338.066L341.527 350.773L342.522 358.963L343.134 358.658L351.173 372.589L349.794 374.656L359.21 360.647L368.778 327.807L339.461 321.454Z" fill="#A4A4A4" stroke="black" stroke-width="0.671953"/>
<mask id="path-51-outside-1_20_1519" maskUnits="userSpaceOnUse" x="106" y="79" width="23" height="30" fill="black">
<rect fill="white" x="106" y="79" width="23" height="30"/>
<path fill-rule="evenodd" clip-rule="evenodd" d="M125.528 90.2642C125.528 92.3237 124.775 94.2072 123.529 95.6543L117.228 106L110.717 95.3071C110.347 94.8286 110.03 94.3084 109.771 93.7549L109.679 93.6038H109.703C109.251 92.5825 109 91.4526 109 90.2642C109 85.7 112.7 82 117.264 82C121.828 82 125.528 85.7 125.528 90.2642ZM117.264 95.1321C120.078 95.1321 122.358 92.8513 122.358 90.0377C122.358 87.2242 120.078 84.9434 117.264 84.9434C114.451 84.9434 112.17 87.2242 112.17 90.0377C112.17 92.8513 114.451 95.1321 117.264 95.1321Z"/>
</mask>
<path fill-rule="evenodd" clip-rule="evenodd" d="M125.528 90.2642C125.528 92.3237 124.775 94.2072 123.529 95.6543L117.228 106L110.717 95.3071C110.347 94.8286 110.03 94.3084 109.771 93.7549L109.679 93.6038H109.703C109.251 92.5825 109 91.4526 109 90.2642C109 85.7 112.7 82 117.264 82C121.828 82 125.528 85.7 125.528 90.2642ZM117.264 95.1321C120.078 95.1321 122.358 92.8513 122.358 90.0377C122.358 87.2242 120.078 84.9434 117.264 84.9434C114.451 84.9434 112.17 87.2242 112.17 90.0377C112.17 92.8513 114.451 95.1321 117.264 95.1321Z" fill="#AEAEAE"/>
<path d="M123.529 95.6543L121.256 93.6966C121.148 93.8209 121.052 93.9538 120.966 94.0939L123.529 95.6543ZM117.228 106L114.666 107.56C115.211 108.454 116.182 109 117.228 109C118.275 109 119.246 108.454 119.791 107.56L117.228 106ZM110.717 95.3071L113.279 93.7468C113.222 93.6528 113.159 93.562 113.092 93.4749L110.717 95.3071ZM109.771 93.7549L112.49 92.4863C112.443 92.3862 112.391 92.2888 112.334 92.1946L109.771 93.7549ZM109.679 93.6038V90.6038C108.595 90.6038 107.595 91.1889 107.064 92.1343C106.533 93.0796 106.553 94.238 107.117 95.1642L109.679 93.6038ZM109.703 93.6038V96.6038C110.717 96.6038 111.663 96.091 112.217 95.2408C112.77 94.3905 112.857 93.3181 112.446 92.3903L109.703 93.6038ZM125.802 97.6119C127.499 95.6411 128.528 93.069 128.528 90.2642H122.528C122.528 91.5783 122.051 92.7733 121.256 93.6966L125.802 97.6119ZM119.791 107.56L126.091 97.2147L120.966 94.0939L114.666 104.44L119.791 107.56ZM108.154 96.8675L114.666 107.56L119.791 104.44L113.279 93.7468L108.154 96.8675ZM107.053 95.0236C107.405 95.779 107.839 96.4879 108.341 97.1394L113.092 93.4749C112.856 93.1692 112.654 92.8379 112.49 92.4863L107.053 95.0236ZM107.117 95.1642L107.209 95.3153L112.334 92.1946L112.241 92.0434L107.117 95.1642ZM109.703 90.6038H109.679V96.6038H109.703V90.6038ZM106 90.2642C106 91.8786 106.341 93.4212 106.959 94.8173L112.446 92.3903C112.16 91.7439 112 91.0267 112 90.2642H106ZM117.264 79C111.043 79 106 84.0431 106 90.2642H112C112 87.3568 114.357 85 117.264 85V79ZM128.528 90.2642C128.528 84.0431 123.485 79 117.264 79V85C120.171 85 122.528 87.3568 122.528 90.2642H128.528ZM119.358 90.0377C119.358 91.1944 118.421 92.1321 117.264 92.1321V98.1321C121.735 98.1321 125.358 94.5081 125.358 90.0377H119.358ZM117.264 87.9434C118.421 87.9434 119.358 88.8811 119.358 90.0377H125.358C125.358 85.5674 121.735 81.9434 117.264 81.9434V87.9434ZM115.17 90.0377C115.17 88.8811 116.107 87.9434 117.264 87.9434V81.9434C112.794 81.9434 109.17 85.5674 109.17 90.0377H115.17ZM117.264 92.1321C116.107 92.1321 115.17 91.1944 115.17 90.0377H109.17C109.17 94.5081 112.794 98.1321 117.264 98.1321V92.1321Z" fill="white" mask="url(#path-51-outside-1_20_1519)"/>
<mask id="path-53-outside-2_20_1519" maskUnits="userSpaceOnUse" x="76" y="100" width="23" height="30" fill="black">
<rect fill="white" x="76" y="100" width="23" height="30"/>
<path fill-rule="evenodd" clip-rule="evenodd" d="M95.5283 111.264C95.5283 113.324 94.775 115.207 93.529 116.654L87.2284 127L80.7168 116.308C80.3475 115.829 80.0295 115.308 79.7711 114.755L79.6793 114.604H79.7026C79.2509 113.583 79 112.453 79 111.264C79 106.7 82.7 103 87.2642 103C91.8283 103 95.5283 106.7 95.5283 111.264ZM87.2642 116.132C90.0777 116.132 92.3585 113.851 92.3585 111.038C92.3585 108.224 90.0777 105.943 87.2642 105.943C84.4506 105.943 82.1698 108.224 82.1698 111.038C82.1698 113.851 84.4506 116.132 87.2642 116.132Z"/>
</mask>
<path fill-rule="evenodd" clip-rule="evenodd" d="M95.5283 111.264C95.5283 113.324 94.775 115.207 93.529 116.654L87.2284 127L80.7168 116.308C80.3475 115.829 80.0295 115.308 79.7711 114.755L79.6793 114.604H79.7026C79.2509 113.583 79 112.453 79 111.264C79 106.7 82.7 103 87.2642 103C91.8283 103 95.5283 106.7 95.5283 111.264ZM87.2642 116.132C90.0777 116.132 92.3585 113.851 92.3585 111.038C92.3585 108.224 90.0777 105.943 87.2642 105.943C84.4506 105.943 82.1698 108.224 82.1698 111.038C82.1698 113.851 84.4506 116.132 87.2642 116.132Z" fill="#AEAEAE"/>
<path d="M93.529 116.654L91.2557 114.696C91.1487 114.821 91.052 114.954 90.9667 115.094L93.529 116.654ZM87.2284 127L84.6661 128.56C85.2106 129.454 86.1817 130 87.2284 130C88.2752 130 89.2462 129.454 89.7907 128.56L87.2284 127ZM80.7168 116.308L83.2791 114.747C83.2218 114.653 83.1594 114.562 83.0922 114.475L80.7168 116.308ZM79.7711 114.755L82.4897 113.486C82.443 113.386 82.3908 113.288 82.3333 113.194L79.7711 114.755ZM79.6793 114.604V111.604C78.5949 111.604 77.595 112.189 77.0638 113.134C76.5327 114.08 76.553 115.238 77.117 116.164L79.6793 114.604ZM79.7026 114.604V117.604C80.7171 117.604 81.663 117.091 82.2166 116.241C82.7702 115.391 82.8566 114.318 82.4462 113.39L79.7026 114.604ZM95.8023 118.612C97.4994 116.641 98.5283 114.069 98.5283 111.264H92.5283C92.5283 112.578 92.0507 113.773 91.2557 114.696L95.8023 118.612ZM89.7907 128.56L96.0912 118.214L90.9667 115.094L84.6661 125.44L89.7907 128.56ZM78.1546 117.868L84.6661 128.56L89.7907 125.44L83.2791 114.747L78.1546 117.868ZM77.0525 116.023C77.4051 116.779 77.8387 117.488 78.3415 118.14L83.0922 114.475C82.8563 114.169 82.6538 113.838 82.4897 113.486L77.0525 116.023ZM77.117 116.164L77.2088 116.315L82.3333 113.194L82.2415 113.043L77.117 116.164ZM79.7026 111.604H79.6793V117.604H79.7026V111.604ZM76 111.264C76 112.879 76.3415 114.421 76.959 115.817L82.4462 113.39C82.1603 112.744 82 112.027 82 111.264H76ZM87.2642 100C81.0431 100 76 105.043 76 111.264H82C82 108.357 84.3568 106 87.2642 106V100ZM98.5283 111.264C98.5283 105.043 93.4852 100 87.2642 100V106C90.1715 106 92.5283 108.357 92.5283 111.264H98.5283ZM89.3585 111.038C89.3585 112.194 88.4208 113.132 87.2642 113.132V119.132C91.7345 119.132 95.3585 115.508 95.3585 111.038H89.3585ZM87.2642 108.943C88.4208 108.943 89.3585 109.881 89.3585 111.038H95.3585C95.3585 106.567 91.7345 102.943 87.2642 102.943V108.943ZM85.1698 111.038C85.1698 109.881 86.1075 108.943 87.2642 108.943V102.943C82.7938 102.943 79.1698 106.567 79.1698 111.038H85.1698ZM87.2642 113.132C86.1075 113.132 85.1698 112.194 85.1698 111.038H79.1698C79.1698 115.508 82.7938 119.132 87.2642 119.132V113.132Z" fill="white" mask="url(#path-53-outside-2_20_1519)"/>
<mask id="path-55-outside-3_20_1519" maskUnits="userSpaceOnUse" x="241" y="383" width="23" height="30" fill="black">
<rect fill="white" x="241" y="383" width="23" height="30"/>
<path fill-rule="evenodd" clip-rule="evenodd" d="M260.528 394.264C260.528 396.324 259.775 398.207 258.529 399.654L252.228 410L245.717 399.308C245.347 398.829 245.029 398.308 244.771 397.755L244.679 397.604H244.703C244.251 396.583 244 395.453 244 394.264C244 389.7 247.7 386 252.264 386C256.828 386 260.528 389.7 260.528 394.264ZM252.264 399.132C255.078 399.132 257.358 396.851 257.358 394.038C257.358 391.224 255.078 388.943 252.264 388.943C249.451 388.943 247.17 391.224 247.17 394.038C247.17 396.851 249.451 399.132 252.264 399.132Z"/>
</mask>
<path fill-rule="evenodd" clip-rule="evenodd" d="M260.528 394.264C260.528 396.324 259.775 398.207 258.529 399.654L252.228 410L245.717 399.308C245.347 398.829 245.029 398.308 244.771 397.755L244.679 397.604H244.703C244.251 396.583 244 395.453 244 394.264C244 389.7 247.7 386 252.264 386C256.828 386 260.528 389.7 260.528 394.264ZM252.264 399.132C255.078 399.132 257.358 396.851 257.358 394.038C257.358 391.224 255.078 388.943 252.264 388.943C249.451 388.943 247.17 391.224 247.17 394.038C247.17 396.851 249.451 399.132 252.264 399.132Z" fill="#AEAEAE"/>
<path d="M258.529 399.654L256.256 397.696C256.149 397.821 256.052 397.954 255.967 398.094L258.529 399.654ZM252.228 410L249.666 411.56C250.211 412.454 251.182 413 252.228 413C253.275 413 254.246 412.454 254.791 411.56L252.228 410ZM245.717 399.308L248.279 397.747C248.222 397.653 248.159 397.562 248.092 397.475L245.717 399.308ZM244.771 397.755L247.49 396.486C247.443 396.386 247.391 396.288 247.333 396.194L244.771 397.755ZM244.679 397.604V394.604C243.595 394.604 242.595 395.189 242.064 396.134C241.533 397.08 241.553 398.238 242.117 399.164L244.679 397.604ZM244.703 397.604V400.604C245.717 400.604 246.663 400.091 247.217 399.241C247.77 398.391 247.857 397.318 247.446 396.39L244.703 397.604ZM260.802 401.612C262.499 399.641 263.528 397.069 263.528 394.264H257.528C257.528 395.578 257.051 396.773 256.256 397.696L260.802 401.612ZM254.791 411.56L261.091 401.214L255.967 398.094L249.666 408.44L254.791 411.56ZM243.155 400.868L249.666 411.56L254.791 408.44L248.279 397.747L243.155 400.868ZM242.052 399.023C242.405 399.779 242.839 400.488 243.342 401.14L248.092 397.475C247.856 397.169 247.654 396.838 247.49 396.486L242.052 399.023ZM242.117 399.164L242.209 399.315L247.333 396.194L247.242 396.043L242.117 399.164ZM244.703 394.604H244.679V400.604H244.703V394.604ZM241 394.264C241 395.879 241.341 397.421 241.959 398.817L247.446 396.39C247.16 395.744 247 395.027 247 394.264H241ZM252.264 383C246.043 383 241 388.043 241 394.264H247C247 391.357 249.357 389 252.264 389V383ZM263.528 394.264C263.528 388.043 258.485 383 252.264 383V389C255.171 389 257.528 391.357 257.528 394.264H263.528ZM254.358 394.038C254.358 395.194 253.421 396.132 252.264 396.132V402.132C256.735 402.132 260.358 398.508 260.358 394.038H254.358ZM252.264 391.943C253.421 391.943 254.358 392.881 254.358 394.038H260.358C260.358 389.567 256.735 385.943 252.264 385.943V391.943ZM250.17 394.038C250.17 392.881 251.107 391.943 252.264 391.943V385.943C247.794 385.943 244.17 389.567 244.17 394.038H250.17ZM252.264 396.132C251.107 396.132 250.17 395.194 250.17 394.038H244.17C244.17 398.508 247.794 402.132 252.264 402.132V396.132Z" fill="white" mask="url(#path-55-outside-3_20_1519)"/>
</svg>
